<svg width="734" height="180" viewBox="0 0 734 180" fill="none" xmlns="http://www.w3.org/2000/svg">
      <path
        d="M383.502 121.208C381.599 127.992 378.845 135.068 375.24 142.435C371.823 149.738 367.71 156.857 362.899 163.792C358.088 170.727 352.737 177.319 346.845 183.568C340.888 189.627 334.578 194.962 327.913 199.573C322.945 202.968 317.932 204.687 312.872 204.73C307.748 204.584 303.302 202.408 299.534 198.203C295.767 193.998 294.051 189.3 294.386 184.111C294.656 178.733 296.988 174.127 301.383 170.295C309.669 163.014 316.972 155.33 323.291 147.243C329.799 139.092 334.883 130.795 338.542 122.352C342.326 113.654 344.561 105.065 345.248 96.5839C346.123 88.038 345.134 79.6028 342.28 71.2785L339.069 61.9137C336.993 55.8596 337.388 50.2272 340.253 45.0164C343.118 39.8056 347.577 36.1623 353.631 34.0866C359.685 32.0109 365.442 32.1514 370.901 34.5081C376.361 36.8649 380.128 41.0702 382.204 47.1243L385.415 56.4891C388.269 64.8134 392.664 72.081 398.599 78.2918C404.469 84.3134 411.407 89.4404 419.412 93.6728C427.607 97.8403 436.68 101.178 446.631 103.686C456.707 105.94 467.25 107.4 478.261 108.064C484.083 108.394 488.75 110.599 492.264 114.681C495.712 118.572 497.24 123.335 496.845 128.967C496.45 134.599 494.275 139.045 490.318 142.305C486.296 145.375 481.283 147.094 475.277 147.462C467.186 147.91 458.929 147.57 450.507 146.44C442.086 145.31 433.88 143.578 425.891 141.243C417.902 138.908 410.256 136.032 402.953 132.616C395.84 129.135 389.356 125.332 383.502 121.208Z"
        fill="#239AFF"
      />
      <path
        d="M372.655 50.251C372.551 54.9166 368.013 60.3683 363.942 62.4131C357.63 65.5832 353.054 63.093 351.299 62.0189"
        stroke="#363739"
        stroke-width="2"
        stroke-linecap="round"
      />
      <path
        d="M347.43 52.8814C347.643 52.5878 353.58 53.0068 353.694 53.2593C353.978 53.8888 349.785 58.6816 349.317 58.6042"
        stroke="#363739"
        stroke-width="2"
        stroke-linecap="round"
      />
      <path
        d="M364.549 43.4656C363.5 45 362.209 47.3219 361.515 48.7868C360.825 50.244 367.683 47.6218 368.09 47.5327"
        stroke="#363739"
        stroke-width="2"
        stroke-linecap="round"
      />
      <path
        d="M168.14 252.248C165.74 259.673 161.626 264.787 155.799 267.59C150.184 270.461 143.664 270.696 136.238 268.296C128.813 265.895 123.559 261.853 120.475 256.17C117.604 250.555 117.369 244.035 119.769 236.609L148.268 148.46C148.954 146.338 149.01 144.716 148.435 143.593C148.073 142.538 146.725 141.634 144.392 140.88L57.6012 113.121C51.6609 111.201 47.4362 107.96 44.927 103.4C42.6986 98.6958 42.5446 93.3736 44.4651 87.4333C46.3856 81.493 49.5918 77.3743 54.0837 75.0773C58.8563 72.6367 64.2127 72.3767 70.153 74.2972L183.038 110.492C201.708 116.528 208.059 128.774 202.092 147.232L168.14 252.248Z"
        fill="#F5EBDC"
      />
      <path
        d="M204.479 160.537C199.502 161.504 195.86 161.143 193.554 159.454C191.329 157.615 189.629 153.671 188.453 147.621L182.977 119.43C181.802 113.38 181.914 109.15 183.315 106.741C184.796 104.183 188.025 102.42 193.002 101.453L251.615 90.067C252.356 89.923 252.639 89.4005 252.464 88.4994L250.514 78.4589C250.339 77.5579 249.88 77.1793 249.139 77.3233L187.826 89.2339C184.649 89.851 181.92 89.3793 179.639 87.8187C177.463 86.2375 176.001 83.5161 175.25 79.6544C174.5 75.7927 174.838 72.7215 176.263 70.4409C177.794 68.1398 180.148 66.6807 183.325 66.0636L255.757 51.9931C260.734 51.0262 264.335 51.4621 266.561 53.3007C268.892 55.1188 270.645 59.0528 271.821 65.1028L277.072 92.1349C278.247 98.1849 278.094 102.489 276.613 105.048C275.213 107.457 272.024 109.145 267.047 110.112L209.07 121.375C208.328 121.519 208.07 122.17 208.295 123.328L210.396 134.141C210.546 134.913 210.991 135.228 211.733 135.084L274.793 122.834C277.97 122.217 280.646 122.699 282.822 124.28C285.103 125.84 286.618 128.551 287.369 132.413C288.119 136.275 287.728 139.356 286.197 141.657C284.772 143.938 282.471 145.387 279.294 146.004L204.479 160.537Z"
        fill="#FFC700"
      />
      <path
        d="M251.294 70.1423C251.024 71.2483 250.652 72.3436 248.638 72.5609C246.925 72.7456 245.507 70.6203 244.958 69.2213C243.035 64.3186 243.465 61.2201 243.92 60.2837C244.083 59.7737 245.163 58.8365 246.35 58.9023C247.393 59.0843 248.227 59.6883 248.918 60.4181C250.004 61.5639 250.641 62.9556 250.992 64.465C251.402 66.2293 251.751 68.2702 251.294 70.1423Z"
        stroke="#363739"
        stroke-width="2"
        stroke-linecap="round"
      />
      <path
        d="M248.635 66.5175C249.404 69.1861 249.044 71.7315 247.829 72.2028C246.615 72.6741 245.007 70.8929 244.237 68.2243C243.468 65.5557 243.492 62.6845 244.706 62.2132C245.921 61.7418 247.581 62.8629 248.635 66.5175Z"
        fill="#363739"
      />
      <path
        d="M257.155 61.5418C257.136 60.8942 257.082 59.6615 257.261 59.0468C257.292 58.3768 258.02 56.8651 259.614 56.5553C260.848 56.1887 262.132 56.6862 262.95 57.5408C263.34 57.948 263.75 58.4965 264.049 58.9703C264.339 59.4295 264.735 60.1501 264.963 60.6449C265.312 61.3535 266.096 63.1645 266.435 64.9103C266.775 66.6561 265.935 68.6789 264.465 69.5693C263.224 70.3209 262.259 69.9874 261.318 69.5758C260.05 69.0208 259.33 67.5526 258.693 66.4144C257.764 64.7554 257.539 63.5209 257.155 61.5418Z"
        stroke="#363739"
        stroke-width="2"
        stroke-linecap="round"
      />
      <path
        d="M262.405 63.1297C263.473 65.5798 264.096 67.6711 261.996 68.5859C260.703 69.1493 258.789 67.6198 257.722 65.1698C256.655 62.7198 256.838 60.2769 258.131 59.7136C260.105 58.8538 261.338 60.6797 262.405 63.1297Z"
        fill="#363739"
      />
      <path
        d="M676.691 122.016L689.903 114.766C691.89 113.676 693.803 113.315 695.643 113.684C697.483 114.053 699.002 115.331 700.201 117.516C701.364 119.635 701.626 121.603 700.985 123.419C700.308 125.17 698.976 126.59 696.99 127.68L683.777 134.93L690.646 147.447L703.858 140.197C705.845 139.107 707.777 138.779 709.653 139.215C711.492 139.584 713.012 140.861 714.211 143.047C715.374 145.166 715.617 147.101 714.94 148.851C714.264 150.601 712.932 152.021 710.945 153.111L697.733 160.361L709.889 182.514C711.125 184.766 711.374 186.87 710.637 188.825C709.901 190.78 708.407 192.376 706.155 193.611C703.903 194.847 701.755 195.25 699.71 194.821C697.665 194.392 696.025 193.052 694.789 190.8L654.341 117.09C653.105 114.838 652.856 112.734 653.592 110.779C654.329 108.824 655.823 107.228 658.075 105.993C660.326 104.757 662.475 104.354 664.52 104.783C666.565 105.212 668.205 106.552 669.441 108.804L676.691 122.016Z"
        fill="#E9DFD0"
      />
      <path
        d="M567.019 37.7551C564.405 36.4609 562.631 34.7425 561.696 32.6C560.804 30.3731 561.005 27.9524 562.299 25.3381C563.593 22.7238 565.375 21.1386 567.646 20.5825C569.958 19.9421 572.421 20.269 575.035 21.5632L595.781 31.8335L598.724 25.888C599.977 23.358 601.97 21.8772 604.704 21.4455C607.437 21.0138 610.069 21.4242 612.599 22.6767C615.129 23.9292 617.051 25.7733 618.366 28.2089C619.68 30.6446 619.711 33.1274 618.458 35.6574L615.515 41.6028L636.387 51.9358C639.002 53.23 640.755 54.9906 641.648 57.2175C642.582 59.36 642.402 61.7385 641.108 64.3528C639.814 66.9671 638.011 68.5945 635.699 69.2349C633.428 69.791 630.986 69.422 628.372 68.1277L608.005 58.0453C607.385 60.7832 607.27 63.7716 607.662 67.0105C608.095 70.165 608.908 73.4023 610.099 76.7222C611.291 80.042 612.819 83.3185 614.683 86.5516C616.674 89.742 618.853 92.7634 621.221 95.6157C622.997 97.755 623.785 100.087 623.585 102.613C623.426 105.055 622.34 107.142 620.327 108.876C618.314 110.609 616.107 111.354 613.708 111.111C611.35 110.784 609.136 109.635 607.066 107.666C601.954 102.72 597.849 97.013 594.751 90.5444C591.78 84.0332 589.651 77.7291 588.364 71.6321C585.592 72.9897 582.588 74.2852 579.352 75.5185C576.159 76.6674 572.796 77.6276 569.264 78.3991C565.858 79.1281 562.367 79.6048 558.79 79.8294C555.214 80.054 551.679 79.8787 548.183 79.3034C545.362 78.8517 543.106 77.7875 541.416 76.1108C539.768 74.3498 539.023 72.1434 539.181 69.4915C539.338 66.8396 540.34 64.7104 542.185 63.1039C544.072 61.4131 546.405 60.6253 549.183 60.7405C552.887 60.8941 556.59 60.7321 560.291 60.2545C564.034 59.6926 567.587 58.8789 570.95 57.8135C574.354 56.6637 577.42 55.2418 580.149 53.5476C583.004 51.8108 585.332 49.8658 587.133 47.7123L567.019 37.7551Z"
        fill="#FF5838"
      />
      <path
        d="M595.622 35.6044C594.833 36.0285 593.488 38.0975 594.209 38.8688C595.407 40.151 597.407 39.4882 598.267 38.4077"
        stroke="#363739"
        stroke-width="2"
        stroke-linecap="round"
      />
      <path
        d="M606.451 40.1895C605.783 41.4023 604.885 42.6576 606.708 43.6722C608.389 44.6076 610.116 42.8301 610.699 41.7714"
        stroke="#363739"
        stroke-width="2"
        stroke-linecap="round"
      />
      <path d="M594.653 43.7589C594.653 43.7589 598.385 46.6928 603.122 47.1003" stroke="#363739" stroke-width="2" stroke-linecap="round" />
      <path d="M604.221 45.8325C603.327 47.0248 603.253 47.9143 603.59 48.6525" stroke="#363739" stroke-width="2" stroke-linecap="round" />
    </svg>

