    <svg width="704" height="180" viewBox="0 0 704 180" fill="none" xmlns="http://www.w3.org/2000/svg">
      <path
        d="M564.629 132.07C553.153 126.679 534.084 132.463 528.856 144.289C523.2 157.084 534.573 176.459 543.1 185.274C561.147 203.93 593.784 206.18 616.359 196.245C647.026 182.749 672.91 160.053 677.472 124.922C679.429 109.847 675.228 80.6882 654.85 81.1039C637.861 81.4504 633.053 105.443 628.116 118.395C620.808 109.064 598.912 92.9985 586.462 96.2803C574.398 99.4602 568.484 121.048 564.629 132.07Z"
        fill="#FFCE22"
      />
      <g clip-path="url(#clip0_9_7336)">
        <path
          d="M200.766 115.655C168.349 122.545 147.659 154.405 154.549 186.822L190.314 179.22C187.622 166.558 195.706 154.117 208.369 151.425C221.031 148.734 233.471 156.812 236.162 169.475L271.927 161.873C265.036 129.456 233.176 108.766 200.766 115.655Z"
          fill="#43CAFF"
        />
        <path
          d="M192.395 129.438C192.129 129.703 191.884 129.999 191.718 130.337C191.605 130.564 191.489 130.789 191.419 131.033C191.351 131.27 191.305 131.519 191.273 131.763C191.224 132.139 191.254 132.54 191.325 132.909C191.397 133.286 191.534 133.67 191.733 133.999C191.982 134.411 192.312 134.681 192.79 134.773C193.257 134.862 193.729 134.747 194.086 134.419C194.742 133.818 195.154 132.914 195.154 132.02C195.155 131.124 194.867 130.164 194.189 129.541C193.894 129.269 193.577 129.075 193.164 129.05C192.79 129.028 192.33 129.172 192.059 129.44C191.788 129.71 191.575 130.071 191.569 130.466C191.564 130.85 191.664 131.299 191.959 131.57C192.052 131.655 192.134 131.749 192.206 131.851L191.983 131.531C192.073 131.663 192.143 131.803 192.198 131.953L192.062 131.572C192.118 131.735 192.153 131.901 192.168 132.073L192.137 131.669C192.151 131.853 192.142 132.035 192.11 132.216L192.183 131.832C192.15 132 192.098 132.161 192.025 132.316L192.192 131.969C192.126 132.101 192.046 132.224 191.951 132.337L192.2 132.043C192.155 132.095 192.107 132.143 192.057 132.19L194.41 132.61C194.339 132.493 194.28 132.371 194.231 132.242L194.367 132.623C194.3 132.435 194.259 132.242 194.241 132.043L194.271 132.446C194.255 132.234 194.266 132.023 194.304 131.814L194.23 132.198C194.268 132.001 194.329 131.813 194.413 131.631L194.246 131.979C194.327 131.81 194.427 131.654 194.547 131.511L194.297 131.805C194.338 131.757 194.38 131.712 194.425 131.668C194.701 131.393 194.891 131.038 194.915 130.643C194.937 130.269 194.793 129.809 194.525 129.539C194.255 129.267 193.894 129.054 193.5 129.048C193.104 129.043 192.684 129.151 192.395 129.438Z"
          fill="#363739"
        />
        <path
          d="M212.206 124.534C211.984 124.733 211.795 124.946 211.603 125.176C211.421 125.397 211.279 125.667 211.195 125.939C211.148 126.093 211.123 126.258 211.098 126.417C211.093 126.452 211.089 126.486 211.089 126.522C211.089 126.712 211.092 126.922 211.146 127.109C211.254 127.478 211.407 127.848 211.694 128.118C211.96 128.369 212.123 128.486 212.464 128.619C212.636 128.687 212.828 128.725 213.012 128.727C213.52 128.734 213.979 128.575 214.367 128.249C214.814 127.873 215.004 127.29 215.048 126.726C215.069 126.455 215.049 126.182 215.097 125.913L215.024 126.297C215.04 126.212 215.063 126.129 215.1 126.051L214.933 126.398C214.958 126.346 214.988 126.298 215.024 126.254C215.14 126.09 215.208 125.91 215.228 125.715C215.283 125.519 215.286 125.321 215.235 125.119C215.199 124.915 215.117 124.734 214.987 124.578C214.889 124.408 214.753 124.272 214.581 124.169C214.245 123.97 213.836 123.857 213.447 123.958L213.066 124.094C212.831 124.218 212.641 124.39 212.496 124.612C212.459 124.657 212.43 124.705 212.404 124.756C212.329 124.905 212.229 125.082 212.183 125.253C212.118 125.492 212.073 125.741 212.058 125.989C212.043 126.233 212.061 126.482 212.015 126.723L212.089 126.339C212.077 126.398 212.061 126.456 212.036 126.511L212.203 126.164C212.186 126.198 212.166 126.23 212.142 126.26L212.391 125.966C212.369 125.992 212.344 126.015 212.316 126.034L212.637 125.811C212.607 125.831 212.574 125.847 212.54 125.859L212.921 125.723C212.883 125.735 212.846 125.743 212.807 125.747L213.21 125.716C213.18 125.718 213.15 125.716 213.12 125.711L213.504 125.785C213.469 125.778 213.436 125.768 213.403 125.753L213.75 125.92C213.712 125.901 213.677 125.879 213.644 125.852L213.938 126.101C213.9 126.068 213.867 126.031 213.837 125.99L214.06 126.311C214.023 126.257 213.994 126.2 213.971 126.138L214.107 126.519C214.088 126.463 214.076 126.406 214.07 126.347L214.101 126.75C214.097 126.698 214.099 126.647 214.108 126.596L214.034 126.98C214.051 126.9 214.076 126.825 214.111 126.752L213.943 127.1C213.994 126.998 214.059 126.905 214.132 126.818L213.882 127.112C213.99 126.986 214.112 126.874 214.235 126.764C214.387 126.635 214.498 126.479 214.568 126.296C214.668 126.126 214.721 125.94 214.726 125.739C214.745 125.53 214.712 125.332 214.627 125.145C214.576 124.951 214.479 124.781 214.335 124.634C214.066 124.363 213.704 124.15 213.31 124.144C212.902 124.138 212.515 124.258 212.206 124.534Z"
          fill="#363739"
        />
        <path
          d="M200.686 131.204C199.336 133.816 198.511 136.783 198.694 139.744C198.872 142.62 200.245 145.618 203.312 146.286C204.669 146.582 206.093 146.378 207.199 145.493C208.381 144.547 208.91 143.004 209.313 141.599C210.145 138.7 210.588 135.288 209.399 132.426C208.23 129.611 204.549 127.567 201.729 129.424C201.05 129.871 200.683 130.679 201.085 131.456C201.43 132.122 202.434 132.551 203.118 132.1C204.417 131.245 205.981 132.17 206.631 133.602C207.453 135.411 207.131 137.81 206.702 139.678C206.473 140.673 206.225 141.808 205.683 142.687C205.274 143.351 204.846 143.492 204.148 143.391C202.482 143.15 201.791 141.291 201.691 139.688C201.546 137.359 202.148 134.909 203.214 132.846C203.588 132.124 203.501 131.235 202.771 130.761C202.14 130.351 201.062 130.478 200.686 131.204Z"
          fill="#363739"
        />
      </g>
      <path
        d="M573.039 13.2188C576.517 18.526 584.986 19.4679 589.527 15.0525C594.557 10.1622 593.334 0.832735 587.855 -3.53862C582.376 -7.90997 574.112 -7.55086 568.203 -3.79282C567.053 -3.06112 565.911 -2.13075 565.51 -0.819524C565.148 0.367015 565.46 1.64839 565.837 2.83008C567.485 7.9888 567.763 7.91559 571.502 11.4629C571.679 11.6312 571.852 11.8143 572.01 12.0012L573.039 13.2188Z"
        fill="#F7E436"
      />
      <path
        d="M515.21 86.6811C521.367 86.5302 522.977 85.8807 524.766 80.1925C526.556 74.5044 521.102 67.8735 515.23 68.5981C513.119 68.8586 511.151 69.8862 509.516 71.2571C506.634 73.672 504.653 77.5137 505.391 81.2191C506.128 84.9245 509.43 87.4319 513.158 86.7314L515.21 86.6811Z"
        fill="#F7E436"
      />
      <path
        d="M463.579 110.235C464.825 106.562 465.991 107.521 467.813 105.256C469.634 102.991 469.3 100.03 468.307 97.2909C467.802 95.8962 467.294 96.0445 465.924 95.501C464.417 94.9029 462.692 95.3367 461.238 96.0561C457.44 97.9346 454.688 101.816 454.152 106.048C453.838 108.525 454.466 111.415 456.617 112.65C458.767 113.885 462.49 113.442 463.579 110.235Z"
        fill="#F7E436"
      />
      <path
        d="M633.845 42.5833C640.664 46.1026 639.648 47.3224 647.017 46.727C648.459 46.6105 649.887 46.2059 651.104 45.4153C655.862 42.3226 654.193 36.8153 651.069 33.6853C646.329 28.935 638.329 28.7141 632.706 32.1202C628.582 34.6187 629.185 40.9715 633.735 42.5476C633.761 42.5565 633.786 42.5652 633.812 42.5739L633.845 42.5833Z"
        fill="#F7E436"
      />
      <path
        d="M536.895 29.9157C537.333 29.8213 537.759 29.8253 538.166 29.8844C539.882 30.1335 542.09 29.2893 542.997 27.5306C543.626 26.3114 543.48 25.0058 543.128 23.9079C541.197 17.8943 532.94 16.0093 526.545 20.1227C525.986 20.4824 525.4 20.9323 525.167 21.533C524.769 22.5559 525.591 23.4439 525.932 24.1002C526.959 26.0779 528.459 27.702 530.366 28.8225C532.085 29.832 532.82 30.3759 536.544 29.9732C536.657 29.9609 536.775 29.9416 536.89 29.9169L536.895 29.9157Z"
        fill="#F7E436"
      />
      <path
        d="M481.797 43.6519C484.213 47.337 490.093 47.9909 493.246 44.9252C496.738 41.5296 495.889 35.0518 492.085 32.0166C488.281 28.9813 482.543 29.2308 478.44 31.8402C477.641 32.3482 476.848 32.9942 476.57 33.9046C476.319 34.7285 476.535 35.6181 476.797 36.4386C477.941 40.0206 478.135 39.9697 480.73 42.4328C480.853 42.5496 480.973 42.6767 481.083 42.8065L481.797 43.6519Z"
        fill="#F7E436"
      />
      <path
        d="M381.501 133.123L329.472 52.54C321.754 40.5866 302.636 42.5759 297.541 55.8627L263.157 145.528C258.701 157.149 268.6 169.008 281.613 167.64L281.794 167.621C288.683 166.897 294.55 162.481 296.829 156.304L297.917 153.357C300.196 147.18 306.063 142.764 312.952 142.04L332.241 140.013C339.149 139.287 345.822 142.406 349.328 148L350.939 150.571C354.444 156.165 361.117 159.284 368.025 158.558C381.021 157.192 388.242 143.564 381.501 133.123Z"
        fill="#FF5838"
      />
      <path
        d="M354.056 56.2077L356.71 81.4547C356.78 82.1213 357.011 82.7606 357.385 83.3171L370.044 102.179C372.291 105.527 376.205 107.357 380.216 106.936C386.217 106.305 390.558 100.911 389.892 94.9136L388.144 79.1771L385.383 52.915C384.474 44.2642 376.724 37.9884 368.073 38.8976C359.423 39.8069 353.147 47.5568 354.056 56.2077Z"
        fill="#FF5838"
      />
      <path
        d="M300.12 106.865C302.216 110.057 306.845 111.58 311.241 111.67C316.075 111.76 321.018 110.361 325.068 107.781C329.032 105.216 332.03 101.558 333.386 97.5053"
        stroke="#363739"
        stroke-width="3"
        stroke-miterlimit="10"
        stroke-linecap="round"
        stroke-linejoin="round"
      />
      <path
        d="M306.097 89.245C303.018 93.1277 306.858 100.633 308.231 95.4562C308.405 94.8017 307.923 87.2982 306.097 89.245Z"
        fill="#363739"
        stroke="#363739"
        stroke-linecap="round"
      />
      <path
        d="M323.261 92.0911C321.166 90.5947 322.728 87.0196 323.151 85.1962C324.054 81.3084 326.462 86.2503 326.276 88.0071C326.12 89.4713 326.356 94.3031 323.261 92.0911Z"
        fill="#363739"
        stroke="#363739"
        stroke-linecap="round"
      />
      <path
        d="M289.53 56.1448C287.451 59.8979 285.968 64.0583 287.786 68.2428C290.596 74.7108 297.929 70.7169 300.984 66.7611C303.451 63.5655 305.203 58.1175 303.785 54.1298C302.986 51.8839 299.979 52.1968 298.939 54.0749C297.775 56.1755 299.02 59.1815 300.307 60.905C302.499 63.8383 307.329 64.2964 310.62 63.5794C314.349 62.7668 317.027 60.9252 318.75 57.5008C319.944 55.1273 320.987 50.7237 319.365 48.2596C317.579 45.5452 312.234 46.8691 313.023 50.497C313.97 54.8538 317.779 57.4586 322.098 56.8967C326.322 56.3471 331.413 54.455 334.27 51.1244C336.576 48.4361 336.682 44.5415 333.647 42.3639C332.138 41.2809 329.422 39.4934 326.359 40.3715"
        stroke="#363739"
        stroke-width="3"
        stroke-linecap="round"
      />
      <path
        d="M1.79222 58.9827C1.79222 58.9827 24.851 39.7927 53.7636 51.4586C64.9376 55.9671 69.4661 69.9569 57.4218 72.8289C51.4826 74.2452 42.5954 62.6711 55.9428 55.9542C69.2902 49.2373 105.787 71.6976 105.787 71.6976C105.787 71.6976 118.746 75.9002 130.044 70.7551C136.384 67.8678 142.758 60.8075 148.972 53.263C152.909 48.4819 155.965 43.0723 158.085 37.3251C160.659 30.3451 166.54 20.3477 179.444 17.9102C179.444 17.9102 198.918 19.4172 207.532 6.21978C212.015 0.0694118 216.145 -6.9776 216.145 -6.9776"
        stroke="#EEDDC3"
        stroke-width="3"
        stroke-linecap="round"
        stroke-linejoin="round"
        stroke-dasharray="6 6"
      />
      <path
        fill-rule="evenodd"
        clip-rule="evenodd"
        d="M117.967 92.3813L113.758 82.7999C113.758 82.7999 108.597 84.3248 104.018 82.4676C88.8624 76.3211 88.7468 53.9729 107.385 46.3608C130.948 36.7373 149.645 63.5012 128.762 75.7264L132.932 84.8057"
        fill="#F7E436"
      />
      <path
        d="M121.325 84.8425C117.684 79.4411 113.574 74.3578 109.041 69.6616C108.325 68.9198 107.189 70.0452 107.903 70.7859C112.344 75.3862 116.369 80.3537 119.936 85.645C120.507 86.4925 121.901 85.6973 121.325 84.8425Z"
        fill="#363739"
      />
      <path
        d="M127.315 82.5373C126.144 76.6628 125.584 70.6956 125.625 64.7085C125.633 63.6853 124.024 63.6841 124.017 64.7085C123.974 70.8358 124.565 76.9485 125.764 82.9599C125.964 83.9629 127.515 83.5383 127.315 82.5373Z"
        fill="#363739"
      />
      <path
        d="M107.859 70.8262C108.671 72.3794 110.587 73.0925 112.273 72.685C114.337 72.186 115.217 70.0855 115.075 68.1438C114.932 66.1904 114.057 63.3279 111.648 63.2405C110.646 63.2042 109.793 63.8208 109.425 64.7217C109.023 65.7046 109.238 66.7655 109.769 67.6578C110.849 69.4739 112.901 71.3253 115.071 71.6255C117.306 71.9347 119.381 70.4903 120.329 68.5487C120.863 67.4541 121.104 66.2665 121.175 65.0586C121.24 63.9683 121.246 62.7389 120.712 61.7487C119.653 59.7842 117.076 59.9375 116.216 61.9521C115.296 64.1072 116.665 66.7439 118.712 67.7123C119.785 68.2204 121.017 68.3276 122.169 68.0304C123.444 67.7016 124.351 66.8952 125.166 65.9116C125.816 65.126 124.684 63.9947 124.028 64.7874C123.121 65.883 122.092 66.7184 120.572 66.5995C119.184 66.4909 118.029 65.4712 117.65 64.1644C117.49 63.6116 117.468 62.9999 117.733 62.4733C118.044 61.856 118.639 61.6969 119.125 62.2598C119.614 62.8246 119.593 63.6886 119.589 64.3898C119.584 65.1669 119.514 65.9394 119.315 66.693C118.957 68.0508 118.12 69.3686 116.741 69.8934C115.271 70.453 113.828 69.67 112.758 68.6947C111.959 67.9669 110.294 66.4709 110.94 65.2448C111.309 64.5441 112.134 64.8702 112.543 65.3556C113.01 65.9108 113.211 66.7095 113.357 67.4015C113.62 68.6519 113.575 70.4679 112.178 71.0501C111.103 71.4983 109.779 71.0391 109.248 70.024C108.773 69.1146 107.384 69.9177 107.859 70.8262Z"
        fill="#363739"
      />
      <path fill-rule="evenodd" clip-rule="evenodd" d="M120.149 97.5875C124.385 111.198 141.909 101.55 135.702 91.5496Z" fill="#0057FF" />
      <path
        d="M118.144 92.7063C123.378 90.6529 128.564 88.4823 133.698 86.1958C135.576 85.3595 136.707 83.0041 135.77 81.083C134.856 79.21 132.61 78.1388 130.597 79.0354C125.462 81.3219 120.277 83.4925 115.043 85.5459C113.125 86.2982 112.063 88.7974 112.971 90.6588C113.92 92.6032 116.09 93.5122 118.144 92.7063Z"
        fill="#3C7EFF"
      />
      <path
        d="M119.968 96.9153C125.202 94.8618 130.388 92.6912 135.522 90.4048C137.4 89.5685 138.531 87.2131 137.593 85.2919C136.68 83.419 134.434 82.3478 132.42 83.2444C127.286 85.5309 122.1 87.7015 116.866 89.7549C114.949 90.5071 113.886 93.0064 114.795 94.8678C115.743 96.8122 117.913 97.7212 119.968 96.9153Z"
        fill="#3C7EFF"
      />
      <path
        d="M121.791 101.125C127.025 99.0715 132.211 96.9009 137.345 94.6146C139.223 93.7781 140.354 91.4227 139.417 89.5016C138.503 87.6287 136.257 86.5575 134.243 87.4542C129.109 89.7405 123.923 91.9112 118.689 93.9647C116.772 94.7168 115.71 97.2161 116.618 99.0775C117.566 101.022 119.737 101.931 121.791 101.125Z"
        fill="#3C7EFF"
      />
      <defs>
        <clipPath id="clip0_9_7336">
          <rect width="120" height="60.0029" fill="white" transform="translate(142.074 128.13) rotate(-12)" />
        </clipPath>
      </defs>
    </svg>