    <svg width="518" height="180" viewBox="0 0 518 180" fill="none" xmlns="http://www.w3.org/2000/svg">
      <path d="M117.711 83.9325L226.975 59.3844L250.953 178.057L139.191 198.444L117.711 83.9325Z" fill="#04D6B0" />
      <path
        d="M148.48 96.113C149.626 97.5926 149.931 99.5618 149.528 101.365C149.413 101.882 148.903 102.306 148.392 102.44C147.829 102.586 147.293 102.417 146.876 102.056C145.468 100.833 144.676 98.8698 144.89 97.0267C144.937 96.6226 145.057 96.2617 145.367 95.9634C145.648 95.693 146.113 95.4885 146.512 95.5068C146.913 95.5253 147.329 95.6525 147.606 95.9441C147.876 96.2289 148.103 96.6337 148.056 97.0378C148.016 97.376 148.015 97.7121 148.05 98.0492L148.003 97.6437C148.054 98.0701 148.162 98.4824 148.324 98.8801L148.167 98.5032C148.335 98.8984 148.552 99.2664 148.82 99.6052L148.574 99.2939C148.746 99.505 148.934 99.6999 149.141 99.8796L146.489 100.57C146.51 100.478 146.529 100.385 146.545 100.291L146.482 100.683C146.554 100.237 146.564 99.7895 146.517 99.3425L146.564 99.748C146.508 99.278 146.39 98.8232 146.21 98.3856L146.366 98.7625C146.198 98.3712 145.985 98.0056 145.723 97.6669C145.496 97.3746 145.48 96.8311 145.582 96.4926C145.689 96.1387 145.978 95.7524 146.324 95.5772C146.694 95.3889 147.14 95.2926 147.546 95.4173L147.916 95.5665C148.154 95.7005 148.343 95.8827 148.48 96.113Z"
        fill="#363739"
      />
      <path
        d="M169.201 91.7234C170.346 93.2029 170.652 95.1721 170.249 96.9756C170.133 97.492 169.623 97.9168 169.113 98.0499C168.549 98.1966 168.013 98.0278 167.597 97.6664C166.188 96.4437 165.396 94.4801 165.611 92.6371C165.658 92.2329 165.777 91.8721 166.087 91.5737C166.368 91.3033 166.833 91.0988 167.232 91.1171C167.634 91.1356 168.05 91.2629 168.326 91.5544C168.596 91.8392 168.823 92.2441 168.776 92.6482C168.737 92.9864 168.736 93.3225 168.771 93.6596L168.724 93.254C168.775 93.6804 168.882 94.0928 169.044 94.4905L168.887 94.1135C169.055 94.5088 169.272 94.8768 169.54 95.2155L169.294 94.9043C169.466 95.1154 169.655 95.3102 169.862 95.49L167.21 96.1807C167.23 96.088 167.249 95.9951 167.265 95.9016L167.202 96.2935C167.274 95.8471 167.285 95.3999 167.238 94.9528L167.285 95.3583C167.229 94.8883 167.11 94.4335 166.93 93.9959L167.087 94.3729C166.919 93.9816 166.705 93.6159 166.443 93.2773C166.217 92.985 166.2 92.4414 166.302 92.1029C166.409 91.7491 166.699 91.3628 167.044 91.1875C167.415 90.9993 167.861 90.903 168.266 91.0277L168.637 91.1768C168.875 91.3109 169.063 91.4931 169.201 91.7234Z"
        fill="#363739"
      />
      <path
        d="M183.67 103.191C173.659 109.194 161.83 111.905 150.202 110.697C149.844 110.659 149.487 110.618 149.13 110.574C148.975 110.554 148.807 110.555 148.657 110.514C148.649 110.511 148.263 110.395 148.519 110.434C148.66 110.455 148.575 110.011 148.54 110.502C148.537 110.545 148.462 110.884 148.491 110.736C148.437 111.017 148.419 111.303 148.436 111.588C148.506 112.722 149.023 113.747 149.743 114.607C151.373 116.557 153.955 117.201 156.384 117.411C159.255 117.659 162.215 117.481 165.06 117.063C168.043 116.625 170.957 115.791 173.626 114.367C178.351 111.845 182.024 107.027 182.045 101.536C182.047 100.787 182.929 100.255 183.603 100.346C184.423 100.456 184.796 101.152 184.793 101.904C184.773 107.418 181.372 112.51 176.937 115.574C171.453 119.36 164.559 120.339 158.036 120.253C155.089 120.214 152.026 119.774 149.524 118.104C147.141 116.512 145.443 113.69 145.691 110.773C145.837 109.057 146.816 107.651 148.673 107.733C150.221 107.802 151.765 108.081 153.318 108.158C156.391 108.31 159.476 108.16 162.524 107.751C169.358 106.835 176.039 104.558 181.958 101.008C182.6 100.624 183.403 100.603 183.905 101.244C184.322 101.776 184.316 102.803 183.67 103.191Z"
        fill="#363739"
        stroke="#363739"
      />
      <path
        d="M65 178.394C100.899 178.394 130 149.293 130 113.394C130 77.4955 100.899 48.394 65 48.394C29.1015 48.394 0 77.4955 0 113.394C0 149.293 29.1015 178.394 65 178.394Z"
        fill="#FFCE22"
      />
      <path
        d="M42.1686 100.855C40.9486 102.871 40.834 105.417 41.8762 107.543C42.5015 108.818 44.3761 108.893 45.1169 107.704C46.3804 105.676 46.4776 102.856 45.1633 100.809C44.8901 100.383 44.5752 100.047 44.0834 99.8822C43.6405 99.734 43.04 99.7596 42.63 99.998C42.2173 100.238 41.8484 100.607 41.716 101.084C41.5872 101.547 41.5653 102.128 41.8366 102.551C42.0193 102.835 42.1678 103.135 42.2859 103.452L42.115 102.974C42.2605 103.384 42.3495 103.807 42.3852 104.241L42.3453 103.734C42.3729 104.145 42.3521 104.552 42.2822 104.957L42.3723 104.475C42.2964 104.878 42.1733 105.265 41.9993 105.636L42.2059 105.199C42.1318 105.351 42.051 105.497 41.9621 105.639L45.2028 105.801C45.115 105.622 45.038 105.439 44.9707 105.251L45.1416 105.73C45.0046 105.328 44.9191 104.915 44.8819 104.492L44.9217 104.998C44.8888 104.549 44.9113 104.104 44.9892 103.661L44.8991 104.143C44.9787 103.726 45.1055 103.325 45.2826 102.941L45.076 103.377C45.1513 103.22 45.2333 103.069 45.3233 102.92C45.5777 102.5 45.6845 101.982 45.5802 101.495C45.4829 101.041 45.1669 100.541 44.7626 100.3C43.9034 99.7888 42.7142 99.9539 42.1686 100.855Z"
        fill="#363739"
      />
      <path
        d="M79.6516 95.4188C79.0094 97.2965 79.2013 99.5105 80.0656 101.332C80.3756 101.985 81.011 102.429 81.6687 102.485C82.0188 102.512 82.3478 102.441 82.6561 102.273C82.9498 102.109 83.1854 101.875 83.3628 101.571C84.0121 100.685 84.3559 99.4237 84.3457 98.2723C84.3406 97.6901 84.2836 97.0737 84.1124 96.5107C84.0014 96.1459 83.8807 95.7732 83.7163 95.4289C83.5499 95.0805 83.3289 94.7577 83.112 94.4456C82.8337 94.045 82.2345 93.7785 81.8008 93.7419C81.3274 93.702 80.7485 93.8897 80.414 94.2546C80.0779 94.6214 79.8187 95.1159 79.8226 95.6612L79.8728 96.2198C79.9529 96.5893 80.1112 96.9157 80.3475 97.1992C80.3713 97.2328 80.3945 97.2669 80.4172 97.3014L80.1253 96.8522C80.2935 97.1135 80.428 97.3912 80.5331 97.6873L80.3503 97.157C80.4577 97.4748 80.5272 97.7999 80.5617 98.1335L80.5116 97.5748C80.5432 97.9303 80.5339 98.2827 80.4832 98.6318L80.5657 98.1026C80.5133 98.4293 80.4261 98.742 80.3007 99.0412L80.5023 98.5645C80.3965 98.8054 80.269 99.0292 80.1168 99.237L83.414 99.4765C83.3206 99.2797 83.2382 99.0788 83.1659 98.8725L83.3487 99.4027C83.2012 98.964 83.1058 98.5136 83.0603 98.053L83.1105 98.6116C83.0687 98.1261 83.0838 97.6444 83.1573 97.1686L83.0748 97.6978C83.1265 97.3899 83.2014 97.0912 83.3012 96.7996C83.4666 96.3159 83.3752 95.6399 83.1506 95.1815C82.9303 94.7319 82.4871 94.2884 82.0353 94.1402C81.5506 93.9814 81.0015 93.9672 80.5602 94.24C80.1214 94.5113 79.83 94.8973 79.6516 95.4188Z"
        fill="#363739"
      />
      <path
        d="M30.8506 91.7797C31.9305 89.8837 34.05 87.8846 36.7646 86.5653C44.5467 83.6043 50.5551 85.7067 52.944 87.8846C61.3414 96.0172 57.9824 109.286 49.4878 112.898C41.7742 117.73 29.7078 111.416 28.485 102.534C27.9397 98.5734 28.9169 95.1747 30.8506 91.7797Z"
        stroke="#363739"
        stroke-width="4"
        stroke-linecap="round"
      />
      <path
        d="M69.8506 85.7128C70.9305 83.8168 73.05 81.8177 75.7646 80.4984C83.5467 77.5374 89.5551 79.6398 91.944 81.8177C100.341 89.9503 96.9824 103.219 88.4878 106.831C80.7742 111.664 68.7078 105.349 67.485 96.4673C66.9397 92.5065 67.9169 89.1078 69.8506 85.7128Z"
        stroke="#363739"
        stroke-width="4"
        stroke-linecap="round"
      />
      <path
        d="M58.0271 99.9157C58.2941 99.5628 58.7819 98.7164 59.0857 98.4098C59.9751 97.5118 60.8743 96.8208 62.1706 96.6516C64.2254 96.3835 66.2175 96.6969 67.7694 98.042"
        stroke="#363739"
        stroke-width="4"
        stroke-linecap="round"
      />
      <g clip-path="url(#clip0_91_13645)">
        <path
          d="M22.9506 126.296C21.4707 125.906 20.9592 124.067 22.0256 122.969L23.8723 121.068C24.3765 120.549 25.1218 120.342 25.8212 120.529L68.1836 131.801C68.7215 131.944 69.2946 131.856 69.7653 131.559L107.439 107.784C108.16 107.329 109.09 107.381 109.755 107.914L111.984 109.696C113.067 110.562 112.962 112.24 111.779 112.964L70.538 138.197C70.0729 138.481 69.5118 138.564 68.9846 138.425L22.9506 126.296Z"
          fill="white"
        />
        <path
          d="M72.6558 193.058L28.3063 182.521C26.714 182.142 25.5128 180.832 25.2738 179.213L17.8262 128.751C17.4132 125.952 19.956 123.621 22.708 124.275L63.9505 134.074L72.6558 193.058Z"
          fill="#578DF5"
        />
        <path
          d="M124.165 164.628C124.404 166.247 123.632 167.848 122.216 168.671L82.7987 191.564L74.0934 132.58L110.751 111.29C113.197 109.869 116.304 111.366 116.717 114.164L124.165 164.628Z"
          fill="#578DF5"
        />
        <path d="M74.1133 132.58L63.9698 134.07L72.6362 193.06L82.7797 191.569L74.1133 132.58Z" fill="#FFF622" />
        <path
          d="M63.9507 134.076C63.9507 134.076 64.9416 129.837 68.9488 129.599C72.956 129.36 74.0933 132.58 74.0933 132.58L63.9507 134.076Z"
          fill="#FFF622"
        />
        <path
          d="M83.8352 140.496C83.7311 139.7 84.1133 138.919 84.8057 138.512L108.77 124.441C110.012 123.712 111.594 124.495 111.768 125.924L112.784 134.266C112.882 135.071 112.485 135.855 111.778 136.252L87.8097 149.719C86.5751 150.413 85.0304 149.639 84.8469 148.235L83.8352 140.496Z"
          fill="#FFF622"
        />
      </g>
      <path
        d="M6.70942 143.014C5.4999 145.5 4.5 148.067 4.5 150C4.5 151.892 4.55201 154.802 6.35185 156.164C7.17989 156.791 8.54214 157 9.5 157C11.9987 157 14.4548 156.69 16.9199 156.204C20.6517 155.468 25.1283 154.445 28.5208 152.668"
        stroke="#363739"
        stroke-width="4"
        stroke-linecap="round"
      />
      <path
        d="M130.179 120.725C131.988 122.816 133.616 125.038 134.114 126.906C134.601 128.734 135.301 131.56 133.912 133.339C133.274 134.158 132.011 134.711 131.086 134.958C128.672 135.602 126.218 135.935 123.711 136.1C119.916 136.351 115.327 136.516 111.591 135.673"
        stroke="#363739"
        stroke-width="4"
        stroke-linecap="round"
      />
      <path
        d="M459.735 95.9211C447.189 100.635 438.686 106.922 427.406 114.265C418.563 120.021 410.944 125.832 405.309 133.08C402.462 136.74 398.958 141.612 397.702 145.952C396.676 149.495 397.377 153.603 400.361 155.463C402.64 156.884 405.798 156.725 408.543 155.715C411.939 154.466 414.851 152.114 418.141 150.629C421.78 148.987 425.319 146.845 428.795 144.865C438.137 139.545 447.181 133.675 455.85 127.301C463.634 121.578 472.099 116.136 476.835 107.547C484.019 94.5269 469.321 92.3191 459.735 95.9211Z"
        fill="#FF9E29"
      />
      <path
        d="M466.582 152.017C475.338 145.412 483.663 138.22 491.599 130.77C494.937 127.636 498.501 122.77 496.002 118.569C492.63 112.899 482.946 115.191 477.054 116.607C465.796 119.313 454.922 127.207 445.503 133.833C436.757 139.985 428.253 145.297 421.447 153.577C418.001 157.77 414.825 164.045 416.015 169.182C417.049 173.647 422.95 175.706 427.517 175.075C432.744 174.354 439.327 169.646 443.978 166.997C451.822 162.528 459.349 157.473 466.582 152.017Z"
        fill="#FF9E29"
      />
      <path
        d="M466.604 151.42C458.953 156.777 452.04 162.436 445.038 168.558C438.819 173.995 429.679 179.231 428.252 187.767C427.264 193.671 431.123 198.668 437.346 197.436C446.138 195.697 454.741 190.911 462.525 186.492C473.082 180.499 482.673 172.81 492.185 165.342C498.633 160.28 505.379 155.562 507.693 147.469C508.71 143.912 507.299 138.78 504.34 136.585C501.107 134.188 495.254 136.146 491.677 137.402C482.111 140.762 473.334 144.967 466.604 151.42Z"
        fill="#FF9E29"
      />
      <path
        d="M289.422 91.5314C293.279 97.219 297.866 96.7315 303.649 94.4007C314.42 90.0596 314.332 79.5226 306.497 75.4866C298.228 75.9423 282.587 81.4549 289.422 91.5314Z"
        fill="#FF9E29"
        fill-opacity="0.5"
      />
      <path
        d="M333.873 53.3137C327.595 53.9101 320.295 59.7735 323.27 66.083C326.071 72.0204 332.697 74.3105 338.227 71.7104C349.435 66.4397 345.031 46.7999 333.873 53.3137Z"
        fill="#FF9E29"
        fill-opacity="0.5"
      />
      <path
        d="M306.042 36.7916C292.833 42.4221 299.206 66.084 309.799 55.3104C314.906 50.1169 316.924 32.3541 306.042 36.7916Z"
        fill="#FF9E29"
        fill-opacity="0.5"
      />
      <path
        d="M377.694 27.2705C370.109 28.9502 360.464 32.6424 363.528 42.0699C365.166 47.1093 369.687 52.1952 375.204 50.449C386.344 46.923 387.478 22.4095 377.694 27.2705Z"
        fill="#FF9E29"
        fill-opacity="0.5"
      />
      <path
        d="M346.905 37.4872C349.491 36.8391 350.553 33.1071 351.154 30.6003C352.804 23.7191 350.62 24.9375 345.149 21.7928C334.419 22.7485 336.78 40.0246 346.905 37.4872Z"
        fill="#FF9E29"
        fill-opacity="0.5"
      />
      <path
        d="M379.392 62.4264C370.242 63.268 361.668 68.3385 366.74 78.2272C368.994 82.6216 373.579 87.3572 378.33 85.3929C386.716 81.9253 388.691 59.0777 379.392 62.4264Z"
        fill="#FF9E29"
        fill-opacity="0.5"
      />
      <path
        d="M340.487 94.6229C333.699 96.0429 322.965 100.998 329.534 108.665C331.874 111.396 340.235 118.312 343.607 115.692C348.504 111.886 345.185 90.5342 340.487 94.6229Z"
        fill="#FF9E29"
        fill-opacity="0.5"
      />
      <path
        d="M302.663 114.696C297.653 115.916 290.286 117.253 287.797 122.112C285.267 127.049 289.985 130.37 295.123 130.271C299.098 130.194 304.952 128.086 306.403 124.244C307.506 121.323 305.895 115.745 302.663 114.696Z"
        fill="#FF9E29"
        fill-opacity="0.5"
      />
      <path
        d="M302.001 114.555C302.228 114.582 302.45 114.627 302.663 114.696C302.855 114.649 303.05 114.603 303.234 114.556L302.001 114.555Z"
        fill="#FF9E29"
        fill-opacity="0.5"
      />
      <path d="M302.001 114.555C301.695 114.518 301.381 114.506 301.052 114.554L302.001 114.555Z" fill="#FF9E29" fill-opacity="0.5" />
      <path
        d="M414.943 83.3354C410.164 83.4754 400.434 85.5871 402.565 92.3429C403.381 94.9315 411.663 101.047 414.897 101.277C425.806 102.052 429.153 77.4547 414.943 83.3354Z"
        fill="#FF9E29"
        fill-opacity="0.5"
      />
      <path
        d="M409.636 46.9105C404.79 47.3718 400.446 53.7293 404.124 58.8027C405.942 61.3096 415.841 63.5737 418.643 62.0361C427.876 56.9696 419.972 43.431 409.636 46.9105Z"
        fill="#FF9E29"
        fill-opacity="0.5"
      />
      <path
        d="M407.669 10.743C403.424 8.10819 399.374 11.3289 397.816 16.3595C396.933 19.2154 399.057 23.7806 399.963 26.5561C408.74 29.2448 419.498 13.8057 407.669 10.743Z"
        fill="#FF9E29"
        fill-opacity="0.5"
      />
      <path
        d="M363.764 14.6251C370.958 16.1423 380.187 0.312141 370.549 -1.69566L370.683 -1.18953C369.187 -2.95477 366.91 -5.47956 364.33 -4.72195C362.939 -4.3136 361.86 -3.19954 361.185 -1.93741C360.511 -0.675231 360.187 0.738966 359.87 2.13481C359.332 4.50226 358.792 6.94655 359.231 9.34612C359.67 11.7457 361.342 14.1142 363.764 14.6251Z"
        fill="#FF9E29"
        fill-opacity="0.5"
      />
      <path
        d="M275.445 55.0891L275.58 55.595C265.341 50.8847 258.62 71.4298 273.763 69.6483C282.836 68.5809 280.093 59.9931 275.445 55.0891Z"
        fill="#FF9E29"
        fill-opacity="0.5"
      />
      <defs>
        <clipPath id="clip0_91_13645">
          <rect width="100" height="95.8333" fill="white" transform="translate(15.5107 113.016) rotate(-8.35771)" />
        </clipPath>
      </defs>
    </svg>
