<svg width="240" height="259" viewBox="0 0 240 259" fill="none" xmlns="http://www.w3.org/2000/svg">
<g clip-path="url(#clip0_5_753)">
<path d="M40.5872 191.992C40.5872 191.992 40.5709 191.992 40.5628 191.992C40.2944 191.992 40.026 191.976 39.7495 191.959C39.3103 191.935 38.9769 191.56 39.0013 191.128C39.0257 190.688 39.4079 190.371 39.8308 190.379C40.0911 190.395 40.3432 190.403 40.6035 190.411C41.0426 190.419 41.3842 190.786 41.3761 191.226C41.368 191.658 41.0101 192 40.5872 192L40.5872 191.992ZM43.751 191.951C43.3362 191.951 42.9864 191.625 42.962 191.202C42.9376 190.762 43.2711 190.387 43.7103 190.371C43.9705 190.354 44.2308 190.338 44.4829 190.322C44.9221 190.289 45.2962 190.615 45.3288 191.055C45.3613 191.495 45.036 191.87 44.5968 191.902C44.3284 191.919 44.06 191.935 43.7916 191.951C43.7754 191.951 43.7672 191.951 43.751 191.951ZM47.6873 191.568C47.297 191.568 46.9635 191.283 46.9066 190.884C46.8415 190.452 47.1506 190.053 47.5816 189.988C47.8419 189.955 48.094 189.914 48.3543 189.874C48.7853 189.808 49.192 190.102 49.257 190.534C49.3221 190.965 49.0293 191.373 48.5982 191.438C48.338 191.479 48.0696 191.519 47.8012 191.552C47.7605 191.552 47.728 191.552 47.6873 191.552L47.6873 191.568ZM51.5831 190.884C51.2171 190.884 50.8836 190.623 50.8104 190.248C50.721 189.817 50.9975 189.401 51.4285 189.311L52.1931 189.148C52.616 189.051 53.0389 189.328 53.1365 189.751C53.226 190.175 52.9576 190.599 52.5346 190.696C52.2744 190.753 52.0141 190.811 51.7539 190.868C51.6969 190.876 51.6481 190.884 51.5912 190.884L51.5831 190.884ZM55.4381 189.98C55.0884 189.98 54.7631 189.743 54.6736 189.385C54.5598 188.961 54.82 188.529 55.2429 188.415L55.9993 188.212C56.4222 188.098 56.8533 188.35 56.9672 188.774C57.081 189.197 56.8289 189.629 56.406 189.743L55.6333 189.947C55.5683 189.963 55.5032 189.971 55.43 189.971L55.4381 189.98ZM59.2525 188.92C58.9109 188.92 58.5938 188.7 58.4962 188.35C58.3742 187.926 58.61 187.486 59.0329 187.364L59.7893 187.136C60.2041 187.014 60.6514 187.25 60.7734 187.666C60.8954 188.081 60.6596 188.529 60.2448 188.652L59.4803 188.88C59.4071 188.904 59.3339 188.912 59.2525 188.912L59.2525 188.92ZM63.0344 187.763C62.6928 187.763 62.3838 187.543 62.278 187.201C62.1479 186.786 62.3838 186.338 62.7985 186.207L63.5468 185.971C63.9616 185.841 64.4089 186.069 64.539 186.492C64.6691 186.908 64.4414 187.356 64.0185 187.486L63.2621 187.723C63.1808 187.747 63.1076 187.755 63.0263 187.755L63.0344 187.763ZM66.8081 186.566C66.4747 186.566 66.1656 186.354 66.0518 186.02C65.9135 185.604 66.1494 185.156 66.5641 185.018L67.3205 184.773C67.7353 184.635 68.1826 184.863 68.3209 185.287C68.4591 185.702 68.2314 186.15 67.8085 186.289L67.0521 186.533C66.9708 186.558 66.8895 186.574 66.8081 186.574L66.8081 186.566ZM70.5737 185.327C70.2403 185.327 69.9312 185.116 69.8255 184.782C69.6872 184.366 69.915 183.918 70.3297 183.779L71.078 183.527C71.4928 183.388 71.9401 183.608 72.0784 184.024C72.2166 184.439 71.997 184.887 71.5822 185.026L70.8259 185.279C70.7445 185.303 70.6551 185.319 70.5737 185.319L70.5737 185.327ZM74.3231 184.048C73.9978 184.048 73.6887 183.845 73.5748 183.511C73.4284 183.095 73.648 182.647 74.0628 182.5L74.8029 182.24C75.2177 182.093 75.665 182.313 75.8114 182.728C75.9578 183.144 75.7382 183.592 75.3234 183.739L74.5752 183.999C74.4857 184.032 74.4044 184.04 74.3149 184.04L74.3231 184.048ZM78.0561 182.72C77.7308 182.72 77.4299 182.517 77.3079 182.199C77.1615 181.783 77.373 181.335 77.7796 181.18L78.5197 180.912C78.9345 180.765 79.3818 180.969 79.5364 181.384C79.6909 181.8 79.4794 182.248 79.0646 182.403L78.3164 182.68C78.2269 182.712 78.1375 182.728 78.048 182.728L78.0561 182.72ZM81.7648 181.335C81.4476 181.335 81.1467 181.14 81.0247 180.83C80.8702 180.423 81.0735 179.967 81.4802 179.804L82.2203 179.518C82.6269 179.364 83.0824 179.567 83.245 179.975C83.3996 180.382 83.1962 180.838 82.7896 181.001L82.0495 181.286C81.96 181.319 81.8624 181.335 81.7648 181.335ZM85.4491 179.885C85.1319 179.885 84.8391 179.698 84.7171 179.388C84.5544 178.981 84.7496 178.516 85.1563 178.353L85.8883 178.06C86.2949 177.897 86.7585 178.093 86.9212 178.492C87.0838 178.899 86.8886 179.364 86.4901 179.527L85.7581 179.828C85.6605 179.869 85.5629 179.885 85.4653 179.885L85.4491 179.885ZM89.1008 178.362C88.7918 178.362 88.499 178.182 88.377 177.881C88.2062 177.482 88.3932 177.009 88.7918 176.838L89.5156 176.528C89.9141 176.357 90.3858 176.537 90.5566 176.944C90.7274 177.343 90.5485 177.816 90.1418 177.987L89.4099 178.305C89.3041 178.345 89.1984 178.37 89.1008 178.37L89.1008 178.362ZM92.72 176.757C92.4191 176.757 92.1344 176.585 91.9962 176.292C91.8173 175.893 91.9962 175.42 92.3866 175.241L93.1023 174.915C93.5008 174.728 93.9725 174.907 94.1514 175.298C94.3385 175.697 94.1596 176.17 93.7692 176.349L93.0453 176.683C92.9396 176.732 92.8258 176.757 92.72 176.757ZM96.2986 175.062C96.0058 175.062 95.7211 174.899 95.591 174.614C95.3958 174.223 95.5585 173.742 95.957 173.555L96.6646 173.204C97.0549 173.009 97.5348 173.172 97.7218 173.563C97.917 173.954 97.7544 174.435 97.364 174.622L96.6483 174.972C96.5344 175.029 96.4206 175.054 96.2986 175.054L96.2986 175.062ZM99.8283 173.27C99.5437 173.27 99.2671 173.115 99.1289 172.846C98.9255 172.455 99.0719 171.982 99.4623 171.779L100.154 171.412C100.544 171.208 101.016 171.355 101.227 171.738C101.431 172.121 101.284 172.601 100.902 172.813L100.202 173.188C100.089 173.253 99.9584 173.278 99.8364 173.278L99.8283 173.27ZM103.301 171.371C103.025 171.371 102.756 171.225 102.61 170.964C102.398 170.581 102.528 170.1 102.911 169.88L103.594 169.489C103.976 169.269 104.456 169.4 104.676 169.783C104.895 170.165 104.765 170.646 104.383 170.866L103.692 171.257C103.57 171.331 103.431 171.363 103.301 171.363L103.301 171.371ZM106.717 169.367C106.449 169.367 106.188 169.229 106.042 168.984C105.814 168.609 105.928 168.12 106.302 167.892L106.969 167.477C107.343 167.249 107.831 167.363 108.059 167.729C108.287 168.104 108.173 168.593 107.807 168.821L107.132 169.237C107.002 169.318 106.863 169.351 106.717 169.351L106.717 169.367ZM110.06 167.241C109.799 167.241 109.547 167.118 109.401 166.882C109.157 166.516 109.263 166.027 109.629 165.782L110.287 165.342C110.653 165.098 111.141 165.196 111.385 165.562C111.629 165.929 111.532 166.418 111.166 166.662L110.499 167.102C110.361 167.192 110.214 167.232 110.06 167.232L110.06 167.241ZM113.321 164.992C113.077 164.992 112.833 164.878 112.679 164.658C112.426 164.299 112.508 163.811 112.857 163.55L113.492 163.086C113.842 162.825 114.338 162.906 114.598 163.257C114.858 163.615 114.777 164.104 114.427 164.365L113.785 164.829C113.646 164.927 113.484 164.976 113.321 164.976L113.321 164.992ZM116.493 162.621C116.257 162.621 116.021 162.515 115.867 162.32C115.598 161.977 115.655 161.472 116.005 161.204L116.623 160.715C116.965 160.446 117.461 160.503 117.737 160.845C118.006 161.187 117.949 161.684 117.607 161.961L116.981 162.458C116.835 162.572 116.664 162.629 116.493 162.629L116.493 162.621ZM119.559 160.112C119.339 160.112 119.112 160.014 118.957 159.835C118.673 159.501 118.713 159.004 119.039 158.719L119.632 158.205C119.966 157.92 120.462 157.953 120.746 158.279C121.031 158.605 120.999 159.11 120.673 159.395L120.071 159.916C119.925 160.047 119.738 160.104 119.559 160.104L119.559 160.112ZM122.503 157.464C122.292 157.464 122.08 157.382 121.926 157.211C121.625 156.894 121.641 156.389 121.958 156.087L122.528 155.549C122.845 155.248 123.349 155.256 123.65 155.574C123.951 155.892 123.943 156.389 123.626 156.698L123.048 157.252C122.894 157.399 122.698 157.464 122.503 157.464ZM125.317 154.678C125.122 154.678 124.919 154.604 124.764 154.458C124.447 154.156 124.439 153.651 124.748 153.333L125.293 152.763C125.594 152.445 126.098 152.429 126.415 152.73C126.732 153.032 126.749 153.537 126.448 153.855L125.895 154.433C125.74 154.596 125.529 154.678 125.325 154.678L125.317 154.678ZM128.001 151.761C127.814 151.761 127.627 151.696 127.481 151.565C127.155 151.28 127.123 150.775 127.407 150.449C127.578 150.254 127.749 150.058 127.92 149.854C128.205 149.52 128.709 149.488 129.034 149.773C129.368 150.058 129.4 150.555 129.115 150.889C128.945 151.093 128.766 151.296 128.595 151.492C128.44 151.671 128.221 151.761 128.001 151.761ZM130.531 148.714C130.36 148.714 130.181 148.657 130.043 148.543C129.701 148.274 129.644 147.769 129.912 147.427C130.075 147.223 130.238 147.019 130.392 146.807C130.661 146.457 131.157 146.4 131.507 146.669C131.848 146.938 131.913 147.435 131.645 147.785C131.482 147.997 131.319 148.209 131.149 148.412C130.994 148.608 130.758 148.714 130.531 148.714ZM132.905 145.545C132.751 145.545 132.588 145.496 132.45 145.398C132.092 145.145 132.011 144.648 132.263 144.29C132.417 144.078 132.564 143.866 132.71 143.646C132.962 143.288 133.45 143.198 133.808 143.443C134.166 143.695 134.255 144.184 134.011 144.542C133.857 144.762 133.711 144.982 133.556 145.194C133.402 145.414 133.158 145.528 132.914 145.528L132.905 145.545ZM135.109 142.253C134.963 142.253 134.817 142.212 134.687 142.131C134.321 141.895 134.207 141.406 134.443 141.039L134.857 140.371C135.085 139.996 135.573 139.882 135.947 140.11C136.321 140.338 136.435 140.827 136.207 141.202L135.785 141.878C135.638 142.115 135.378 142.245 135.118 142.245L135.109 142.253ZM137.126 138.839C136.996 138.839 136.866 138.807 136.744 138.742C136.362 138.53 136.224 138.049 136.435 137.666C136.565 137.438 136.687 137.21 136.809 136.982C137.013 136.599 137.492 136.452 137.883 136.656C138.265 136.86 138.411 137.34 138.208 137.731C138.078 137.968 137.956 138.204 137.826 138.432C137.68 138.693 137.411 138.839 137.135 138.839L137.126 138.839ZM138.94 135.32C138.826 135.32 138.712 135.295 138.599 135.238C138.208 135.051 138.037 134.578 138.224 134.179C138.338 133.943 138.444 133.707 138.558 133.47C138.745 133.071 139.209 132.9 139.607 133.079C140.006 133.267 140.176 133.731 139.997 134.13C139.884 134.375 139.77 134.619 139.656 134.855C139.518 135.141 139.233 135.303 138.94 135.303L138.94 135.32ZM140.534 131.694C140.437 131.694 140.339 131.678 140.241 131.637C139.835 131.474 139.64 131.01 139.802 130.603C139.9 130.358 139.997 130.114 140.087 129.869C140.241 129.462 140.705 129.258 141.112 129.413C141.518 129.568 141.722 130.032 141.567 130.44C141.47 130.692 141.372 130.937 141.274 131.181C141.152 131.491 140.851 131.678 140.542 131.678L140.534 131.694ZM141.892 127.971C141.811 127.971 141.73 127.955 141.648 127.93C141.234 127.792 141.006 127.344 141.144 126.928C141.226 126.684 141.307 126.431 141.38 126.187C141.51 125.771 141.957 125.535 142.372 125.665C142.787 125.796 143.023 126.244 142.893 126.659C142.811 126.912 142.73 127.173 142.649 127.425C142.543 127.759 142.226 127.971 141.892 127.971ZM142.99 124.166C142.925 124.166 142.86 124.166 142.795 124.142C142.372 124.036 142.112 123.604 142.218 123.18C142.283 122.928 142.34 122.675 142.405 122.423C142.502 121.999 142.933 121.73 143.356 121.836C143.779 121.934 144.048 122.366 143.942 122.789C143.877 123.05 143.82 123.311 143.755 123.571C143.665 123.93 143.34 124.174 142.99 124.174L142.99 124.166ZM144.739 120.81C144.389 120.81 144.096 120.581 143.991 120.272C143.893 120.296 143.787 120.296 143.682 120.272C143.251 120.199 142.966 119.783 143.039 119.351C143.088 119.091 143.129 118.838 143.169 118.577C143.243 118.145 143.641 117.852 144.08 117.917C144.511 117.991 144.804 118.398 144.739 118.83C144.715 118.96 144.698 119.091 144.674 119.221C144.698 119.221 144.723 119.221 144.747 119.221L144.91 119.221C145.113 119.221 145.316 119.213 145.512 119.205C145.967 119.188 146.317 119.53 146.333 119.97C146.349 120.41 146.008 120.777 145.569 120.793C145.357 120.793 145.146 120.81 144.934 120.81L144.755 120.81L144.739 120.81ZM141.583 120.655C141.583 120.655 141.526 120.655 141.502 120.655C141.234 120.622 140.957 120.598 140.689 120.557C140.258 120.5 139.949 120.101 140.006 119.669C140.062 119.237 140.453 118.928 140.892 118.985C141.144 119.017 141.404 119.05 141.657 119.074C142.088 119.123 142.405 119.514 142.364 119.946C142.323 120.353 141.974 120.655 141.575 120.655L141.583 120.655ZM148.684 120.508C148.293 120.508 147.96 120.223 147.903 119.824C147.838 119.392 148.139 118.993 148.578 118.928C148.83 118.895 149.082 118.854 149.342 118.805C149.773 118.732 150.18 119.025 150.253 119.457C150.326 119.889 150.034 120.296 149.603 120.37C149.334 120.419 149.074 120.459 148.806 120.492C148.765 120.492 148.732 120.492 148.692 120.492L148.684 120.508ZM137.688 119.97C137.623 119.97 137.558 119.97 137.501 119.946C137.24 119.881 136.972 119.816 136.712 119.742C136.289 119.628 136.045 119.188 136.159 118.765C136.272 118.341 136.712 118.097 137.135 118.211C137.379 118.276 137.631 118.341 137.883 118.406C138.306 118.512 138.566 118.944 138.46 119.368C138.371 119.726 138.045 119.97 137.696 119.97L137.688 119.97ZM152.555 119.71C152.205 119.71 151.888 119.473 151.79 119.123C151.676 118.699 151.929 118.268 152.352 118.154C152.604 118.088 152.848 118.015 153.092 117.942C153.506 117.82 153.954 118.056 154.076 118.479C154.198 118.903 153.962 119.343 153.539 119.465C153.279 119.539 153.018 119.62 152.758 119.685C152.693 119.702 152.62 119.71 152.555 119.71ZM133.922 118.773C133.824 118.773 133.727 118.756 133.637 118.716C133.385 118.618 133.133 118.512 132.889 118.414C132.482 118.243 132.295 117.779 132.466 117.38C132.637 116.98 133.101 116.785 133.499 116.956C133.735 117.054 133.971 117.151 134.215 117.249C134.621 117.412 134.825 117.868 134.662 118.276C134.54 118.585 134.239 118.781 133.922 118.781L133.922 118.773ZM156.312 118.455C155.995 118.455 155.702 118.268 155.572 117.95C155.41 117.543 155.613 117.078 156.02 116.923C156.264 116.826 156.499 116.728 156.735 116.63C157.142 116.459 157.605 116.655 157.768 117.054C157.939 117.461 157.744 117.925 157.345 118.088C157.093 118.194 156.849 118.292 156.597 118.39C156.499 118.431 156.402 118.447 156.304 118.447L156.312 118.455ZM130.335 117.111C130.213 117.111 130.083 117.078 129.961 117.013C129.725 116.883 129.49 116.752 129.254 116.622C128.871 116.41 128.741 115.921 128.953 115.538C129.164 115.155 129.652 115.025 130.034 115.237C130.262 115.367 130.482 115.489 130.709 115.612C131.092 115.815 131.238 116.296 131.035 116.687C130.888 116.956 130.62 117.103 130.335 117.103L130.335 117.111ZM159.915 116.826C159.631 116.826 159.346 116.671 159.208 116.394C159.012 116.003 159.167 115.522 159.557 115.326C159.785 115.204 160.021 115.09 160.249 114.968C160.639 114.764 161.111 114.911 161.322 115.294C161.526 115.677 161.379 116.158 160.997 116.369C160.761 116.5 160.517 116.622 160.281 116.744C160.167 116.801 160.045 116.834 159.923 116.834L159.915 116.826ZM144.365 116.361C144.365 116.361 144.316 116.361 144.284 116.361C143.852 116.32 143.527 115.929 143.576 115.498C143.6 115.237 143.625 114.976 143.649 114.715C143.682 114.276 144.064 113.95 144.503 113.99C144.942 114.023 145.259 114.414 145.227 114.846C145.203 115.115 145.178 115.384 145.154 115.652C145.113 116.06 144.772 116.369 144.365 116.369L144.365 116.361ZM126.96 115.05C126.806 115.05 126.651 115.001 126.513 114.911C126.293 114.756 126.074 114.601 125.854 114.447C125.496 114.194 125.415 113.697 125.675 113.339C125.927 112.98 126.423 112.899 126.781 113.159C126.993 113.306 127.204 113.461 127.416 113.607C127.773 113.852 127.863 114.349 127.619 114.707C127.464 114.927 127.22 115.05 126.968 115.05L126.96 115.05ZM163.372 114.878C163.103 114.878 162.851 114.748 162.697 114.504C162.469 114.129 162.583 113.64 162.957 113.412C163.177 113.273 163.396 113.135 163.616 112.996C163.982 112.76 164.478 112.874 164.706 113.241C164.941 113.607 164.836 114.104 164.462 114.333C164.234 114.479 164.006 114.618 163.778 114.764C163.648 114.846 163.502 114.878 163.364 114.878L163.372 114.878ZM166.666 112.679C166.422 112.679 166.178 112.565 166.023 112.345C165.771 111.986 165.852 111.497 166.202 111.237C166.414 111.082 166.625 110.927 166.836 110.772C167.186 110.511 167.682 110.585 167.943 110.943C168.203 111.294 168.13 111.791 167.772 112.051C167.56 112.206 167.341 112.369 167.121 112.524C166.983 112.622 166.82 112.671 166.658 112.671L166.666 112.679ZM123.829 112.646C123.65 112.646 123.463 112.581 123.317 112.459C123.113 112.288 122.91 112.108 122.707 111.929C122.381 111.636 122.349 111.139 122.633 110.813C122.918 110.487 123.422 110.454 123.748 110.74C123.943 110.911 124.138 111.082 124.333 111.245C124.667 111.53 124.707 112.027 124.423 112.361C124.268 112.548 124.04 112.638 123.821 112.638L123.829 112.646ZM144.609 112.402L144.593 112.402C144.153 112.394 143.812 112.035 143.82 111.595C143.82 111.334 143.82 111.074 143.828 110.813C143.828 110.373 144.186 110.023 144.617 110.023C145.056 110.023 145.406 110.381 145.406 110.821C145.406 111.09 145.406 111.359 145.398 111.628C145.39 112.059 145.04 112.402 144.609 112.402ZM169.813 110.267C169.585 110.267 169.358 110.169 169.195 109.974C168.919 109.632 168.967 109.135 169.309 108.858C169.512 108.695 169.716 108.524 169.911 108.361C170.244 108.084 170.748 108.124 171.025 108.467C171.302 108.801 171.261 109.306 170.919 109.583C170.716 109.754 170.504 109.925 170.301 110.088C170.155 110.21 169.976 110.267 169.805 110.267L169.813 110.267ZM120.942 109.941C120.738 109.941 120.527 109.86 120.372 109.705C120.185 109.509 119.998 109.322 119.811 109.126C119.51 108.809 119.527 108.304 119.844 108.002C120.161 107.701 120.665 107.717 120.966 108.035C121.145 108.222 121.324 108.41 121.503 108.597C121.812 108.906 121.804 109.412 121.487 109.721C121.332 109.876 121.129 109.949 120.934 109.949L120.942 109.941ZM144.519 108.442C144.105 108.442 143.763 108.124 143.73 107.701C143.714 107.44 143.69 107.179 143.674 106.927C143.633 106.487 143.958 106.104 144.397 106.071C144.828 106.031 145.219 106.356 145.251 106.796C145.276 107.065 145.292 107.334 145.316 107.603C145.349 108.043 145.015 108.418 144.584 108.45C144.568 108.45 144.544 108.45 144.528 108.45L144.519 108.442ZM172.822 107.693C172.603 107.693 172.391 107.603 172.237 107.432C171.944 107.106 171.968 106.601 172.294 106.316L172.871 105.786C173.196 105.493 173.693 105.509 173.985 105.835C174.278 106.161 174.262 106.658 173.937 106.959L173.343 107.497C173.188 107.636 173.001 107.701 172.814 107.701L172.822 107.693ZM118.307 106.984C118.079 106.984 117.851 106.886 117.697 106.69C117.526 106.487 117.363 106.275 117.192 106.063C116.924 105.721 116.981 105.224 117.322 104.947C117.664 104.678 118.16 104.735 118.437 105.077C118.599 105.281 118.762 105.485 118.925 105.688C119.201 106.031 119.152 106.528 118.811 106.805C118.664 106.927 118.486 106.984 118.307 106.984ZM175.718 104.963C175.514 104.963 175.311 104.89 175.165 104.735C174.856 104.426 174.848 103.937 175.157 103.627L175.726 103.065C176.035 102.755 176.539 102.755 176.848 103.065C177.157 103.375 177.157 103.88 176.848 104.189L176.303 104.727C176.149 104.882 175.937 104.955 175.734 104.955L175.718 104.963ZM144.064 104.499C143.682 104.499 143.348 104.222 143.283 103.831C143.243 103.578 143.194 103.318 143.153 103.065C143.072 102.633 143.356 102.218 143.787 102.144C144.218 102.063 144.633 102.348 144.706 102.78C144.755 103.049 144.804 103.309 144.845 103.578C144.918 104.01 144.625 104.417 144.194 104.491C144.153 104.491 144.105 104.499 144.064 104.499ZM115.932 103.814C115.68 103.814 115.436 103.692 115.281 103.472C115.127 103.252 114.98 103.032 114.834 102.804C114.59 102.438 114.687 101.949 115.053 101.704C115.419 101.46 115.907 101.558 116.151 101.924C116.298 102.144 116.444 102.356 116.591 102.568C116.835 102.926 116.745 103.423 116.387 103.668C116.249 103.766 116.094 103.806 115.94 103.806L115.932 103.814ZM178.491 102.161C178.296 102.161 178.101 102.087 177.946 101.941C177.629 101.639 177.621 101.134 177.922 100.816L178.467 100.246C178.768 99.9283 179.264 99.912 179.589 100.213C179.906 100.515 179.923 101.012 179.622 101.338L179.069 101.916C178.914 102.079 178.703 102.161 178.499 102.161L178.491 102.161ZM143.218 100.629C142.868 100.629 142.551 100.401 142.454 100.042C142.389 99.7898 142.315 99.5453 142.242 99.3009C142.12 98.8854 142.356 98.4373 142.771 98.3151C143.186 98.1929 143.633 98.4292 143.755 98.8447C143.836 99.1054 143.909 99.3661 143.983 99.6268C144.096 100.05 143.852 100.482 143.43 100.604C143.356 100.621 143.291 100.637 143.218 100.637L143.218 100.629ZM113.825 100.458C113.549 100.458 113.28 100.311 113.134 100.059C113.004 99.8223 112.866 99.5942 112.735 99.358C112.524 98.975 112.662 98.4943 113.045 98.2825C113.427 98.0707 113.907 98.2092 114.118 98.5921C114.24 98.8202 114.37 99.0484 114.5 99.2683C114.72 99.6512 114.59 100.132 114.208 100.352C114.086 100.425 113.947 100.458 113.817 100.458L113.825 100.458ZM181.183 99.252C180.996 99.252 180.809 99.1869 180.655 99.0484C180.329 98.7551 180.305 98.2581 180.598 97.9322L181.118 97.3456C181.411 97.0197 181.907 96.9871 182.232 97.2804C182.558 97.5737 182.59 98.0707 182.297 98.3966L181.769 98.9913C181.614 99.1624 181.395 99.252 181.183 99.252ZM112.003 96.9382C111.703 96.9382 111.418 96.7671 111.288 96.482C111.174 96.2376 111.06 95.9931 110.954 95.7487C110.775 95.3495 110.954 94.877 111.353 94.6977C111.751 94.5185 112.223 94.6977 112.402 95.0969C112.508 95.3332 112.613 95.5695 112.727 95.8058C112.914 96.205 112.744 96.6775 112.345 96.8568C112.239 96.9056 112.125 96.9301 112.012 96.9301L112.003 96.9382ZM141.949 96.873C141.64 96.873 141.339 96.6857 141.217 96.3761C141.12 96.1398 141.022 95.9035 140.916 95.6673C140.738 95.2681 140.916 94.7955 141.323 94.6244C141.722 94.4452 142.193 94.6244 142.364 95.0318C142.47 95.2762 142.576 95.5288 142.681 95.7813C142.844 96.1887 142.649 96.6531 142.25 96.816C142.153 96.8568 142.055 96.873 141.949 96.873ZM183.778 96.2539C183.599 96.2539 183.42 96.1968 183.265 96.0665C182.932 95.7813 182.891 95.2843 183.168 94.9503L183.672 94.3474C183.948 94.0134 184.453 93.9645 184.786 94.2415C185.12 94.5185 185.168 95.0236 184.892 95.3577L184.379 95.9687C184.225 96.1561 183.997 96.2539 183.769 96.2539L183.778 96.2539ZM140.217 93.3127C139.94 93.3127 139.672 93.1661 139.526 92.9135C139.396 92.6935 139.265 92.4735 139.135 92.2536C138.908 91.8788 139.021 91.39 139.396 91.1619C139.77 90.9337 140.258 91.0478 140.485 91.4225C140.624 91.6507 140.762 91.8869 140.9 92.1232C141.12 92.5061 140.982 92.9868 140.607 93.2068C140.485 93.2801 140.347 93.3127 140.217 93.3127ZM110.466 93.2801C110.141 93.2801 109.84 93.0846 109.726 92.7587C109.637 92.5061 109.539 92.2536 109.45 92.001C109.303 91.5855 109.523 91.1374 109.938 90.9908C110.352 90.8441 110.8 91.0641 110.946 91.4796C111.036 91.724 111.117 91.9684 111.206 92.2128C111.361 92.6202 111.15 93.0764 110.743 93.2312C110.653 93.2638 110.556 93.2801 110.466 93.2801ZM186.274 93.1824C186.104 93.1824 185.933 93.1253 185.786 93.0113C185.445 92.7424 185.38 92.2454 185.656 91.8951L186.144 91.2759C186.413 90.9256 186.909 90.8685 187.259 91.1374C187.6 91.4063 187.665 91.9032 187.397 92.2536L186.909 92.8809C186.754 93.0764 186.518 93.1824 186.283 93.1824L186.274 93.1824ZM188.674 90.0294C188.511 90.0294 188.348 89.9805 188.202 89.8746C187.852 89.6139 187.771 89.1169 188.031 88.7666L188.495 88.1311C188.755 87.7726 189.243 87.6993 189.601 87.96C189.951 88.2207 190.032 88.7095 189.772 89.068L189.3 89.7116C189.145 89.9235 188.901 90.0375 188.666 90.0375L188.674 90.0294ZM138.013 90.0294C137.777 90.0294 137.549 89.9235 137.395 89.7279C137.24 89.5242 137.078 89.3287 136.907 89.1332C136.622 88.7992 136.671 88.294 137.004 88.017C137.338 87.7319 137.842 87.7807 138.119 88.1148C138.298 88.3266 138.468 88.5384 138.639 88.7503C138.908 89.0925 138.851 89.5894 138.509 89.8664C138.363 89.9805 138.192 90.0375 138.021 90.0375L138.013 90.0294ZM109.336 89.4917C108.954 89.4917 108.62 89.2146 108.555 88.8236C108.506 88.5384 108.474 88.2451 108.457 87.9518C108.433 87.5119 108.767 87.1371 109.206 87.1127C109.629 87.0882 110.019 87.4223 110.043 87.8622C110.06 88.0985 110.084 88.3348 110.125 88.5629C110.198 88.9947 109.905 89.402 109.474 89.4754C109.433 89.4754 109.385 89.4835 109.344 89.4835L109.336 89.4917ZM135.321 87.129C135.134 87.129 134.939 87.0638 134.784 86.9171C134.597 86.746 134.402 86.575 134.215 86.412C133.881 86.1269 133.841 85.6299 134.125 85.2958C134.41 84.9618 134.906 84.9211 135.24 85.2062C135.443 85.3855 135.654 85.5647 135.85 85.7521C136.175 86.0454 136.191 86.5505 135.898 86.8764C135.744 87.0475 135.532 87.1371 135.313 87.1371L135.321 87.129ZM190.975 86.8031C190.821 86.8031 190.666 86.7542 190.528 86.6646C190.17 86.4202 190.073 85.9232 190.325 85.5647L190.772 84.9129C191.016 84.5544 191.512 84.4567 191.87 84.7011C192.228 84.9455 192.325 85.4425 192.081 85.801L191.634 86.4609C191.48 86.6809 191.236 86.8031 190.983 86.8031L190.975 86.8031ZM109.93 85.6462C109.799 85.6462 109.669 85.6136 109.547 85.5484C109.165 85.3366 109.027 84.8559 109.238 84.473C109.377 84.2204 109.539 83.9679 109.718 83.7234C109.978 83.3731 110.474 83.2916 110.824 83.5523C111.174 83.813 111.255 84.31 110.995 84.6604C110.857 84.8477 110.735 85.0433 110.621 85.2388C110.474 85.4995 110.206 85.6462 109.93 85.6462ZM132.198 84.6929C132.051 84.6929 131.897 84.6522 131.767 84.5626C131.555 84.4241 131.336 84.2856 131.124 84.1552C130.75 83.9271 130.636 83.4383 130.864 83.0635C131.092 82.6887 131.58 82.5747 131.954 82.8028C132.19 82.9413 132.417 83.088 132.645 83.2427C133.011 83.479 133.109 83.976 132.873 84.3426C132.718 84.5707 132.466 84.7011 132.214 84.7011L132.198 84.6929ZM193.171 83.5035C193.025 83.5035 192.87 83.4627 192.74 83.3731C192.374 83.1368 192.269 82.6398 192.504 82.2732L192.927 81.6133C193.163 81.2467 193.651 81.1326 194.017 81.3689C194.383 81.6052 194.497 82.094 194.261 82.4606L193.83 83.1368C193.676 83.3731 193.423 83.4953 193.163 83.4953L193.171 83.5035ZM112.703 82.8761C112.435 82.8761 112.174 82.7458 112.028 82.5013C111.8 82.1266 111.914 81.6377 112.288 81.4096C112.524 81.263 112.776 81.1245 113.028 80.9941C113.419 80.7904 113.89 80.9452 114.094 81.3281C114.297 81.7192 114.142 82.1917 113.76 82.3954C113.541 82.5095 113.329 82.6317 113.118 82.7621C112.988 82.8435 112.841 82.8761 112.703 82.8761ZM128.725 82.8028C128.619 82.8028 128.514 82.7784 128.408 82.7376C128.172 82.6317 127.936 82.5339 127.7 82.4443C127.294 82.2814 127.098 81.817 127.261 81.4096C127.424 81.0023 127.887 80.8067 128.294 80.9697C128.546 81.0674 128.798 81.1733 129.05 81.2874C129.449 81.4666 129.628 81.931 129.457 82.3302C129.327 82.6236 129.034 82.8028 128.733 82.8028L128.725 82.8028ZM124.984 81.5318C124.919 81.5318 124.862 81.5318 124.797 81.5074C124.553 81.4503 124.301 81.3933 124.057 81.3444C123.626 81.2548 123.349 80.8393 123.439 80.4075C123.528 79.9757 123.943 79.6987 124.374 79.7883C124.642 79.8454 124.911 79.9024 125.179 79.9676C125.602 80.0735 125.862 80.4971 125.765 80.9289C125.675 81.2955 125.35 81.5318 125 81.5318L124.984 81.5318ZM116.395 81.3933C116.029 81.3933 115.688 81.1489 115.606 80.7823C115.509 80.3586 115.753 79.935 116.176 79.8372L116.233 79.8209C116.477 79.7639 116.729 79.715 116.989 79.6661C117.42 79.5928 117.835 79.8779 117.908 80.3097C117.981 80.7415 117.697 81.1571 117.266 81.2304C117.03 81.2711 116.802 81.32 116.566 81.3689C116.509 81.3852 116.444 81.3852 116.387 81.3852L116.395 81.3933ZM121.072 80.9778C121.072 80.9778 121.047 80.9778 121.039 80.9778C120.803 80.9697 120.568 80.9615 120.332 80.9615C119.893 80.9615 119.518 80.603 119.518 80.1712C119.518 79.7394 119.844 79.381 120.283 79.381L120.332 79.381C120.592 79.381 120.844 79.381 121.104 79.3972C121.544 79.4135 121.885 79.7802 121.861 80.2201C121.844 80.6438 121.495 80.9778 121.072 80.9778ZM195.261 80.1387C195.123 80.1387 194.985 80.1061 194.855 80.0246C194.481 79.7965 194.359 79.3076 194.586 78.9329L194.985 78.2566C195.205 77.8819 195.693 77.7515 196.067 77.9796C196.441 78.1996 196.571 78.6884 196.343 79.0632L195.937 79.7476C195.79 79.992 195.53 80.1305 195.261 80.1305L195.261 80.1387ZM197.246 76.7087C197.116 76.7087 196.978 76.6761 196.856 76.6109C196.473 76.3991 196.343 75.9103 196.555 75.5273L196.937 74.843C197.148 74.46 197.628 74.3215 198.01 74.5334C198.393 74.7452 198.531 75.2259 198.319 75.6088L197.929 76.3095C197.783 76.5702 197.514 76.7168 197.238 76.7168L197.246 76.7087ZM199.125 73.2217C199.003 73.2217 198.873 73.1891 198.759 73.132C198.368 72.9284 198.222 72.4477 198.425 72.0648L198.783 71.3641C198.978 70.973 199.458 70.8182 199.849 71.0219C200.239 71.2174 200.393 71.6981 200.19 72.0892L199.824 72.798C199.686 73.0669 199.409 73.2217 199.125 73.2217ZM200.898 69.6776C200.784 69.6776 200.662 69.6532 200.556 69.5961C200.166 69.4088 199.995 68.9362 200.182 68.537L200.524 67.8282C200.711 67.4371 201.182 67.266 201.581 67.4534C201.979 67.6408 202.142 68.1133 201.955 68.5126L201.613 69.2295C201.475 69.5147 201.19 69.6776 200.898 69.6776ZM202.557 66.0765C202.451 66.0765 202.337 66.0521 202.24 66.0114C201.841 65.8321 201.662 65.3677 201.833 64.9685L202.15 64.2434C202.321 63.8442 202.793 63.6568 203.191 63.8361C203.59 64.0153 203.777 64.4797 203.598 64.8789L203.281 65.6122C203.151 65.9055 202.858 66.0847 202.557 66.0847L202.557 66.0765ZM204.102 62.4266C204.004 62.4266 203.899 62.4103 203.801 62.3696C203.395 62.2066 203.199 61.7422 203.362 61.3349L203.655 60.6016C203.817 60.1942 204.281 59.9987 204.68 60.1617C205.086 60.3246 205.281 60.789 205.119 61.1882L204.818 61.9296C204.696 62.2392 204.395 62.4266 204.086 62.4266L204.102 62.4266ZM205.533 58.7277C205.444 58.7277 205.346 58.7114 205.257 58.6789C204.85 58.5241 204.639 58.0678 204.793 57.6605L205.062 56.9191C205.208 56.5036 205.664 56.2917 206.078 56.4465C206.485 56.5932 206.705 57.0494 206.55 57.4649L206.274 58.2145C206.152 58.5322 205.851 58.7277 205.533 58.7277ZM206.851 54.9882C206.77 54.9882 206.68 54.9719 206.599 54.9474C206.184 54.8089 205.965 54.3608 206.103 53.9453L206.347 53.1958C206.485 52.7803 206.932 52.5522 207.347 52.6907C207.762 52.8292 207.99 53.2773 207.851 53.6928L207.599 54.4505C207.485 54.7845 207.176 54.9882 206.851 54.9882ZM208.047 51.2079C207.973 51.2079 207.892 51.1997 207.819 51.1753C207.404 51.0449 207.16 50.605 207.29 50.1895L207.51 49.4399C207.632 49.0163 208.071 48.78 208.494 48.9022C208.917 49.0244 209.153 49.4644 209.031 49.888L208.803 50.6539C208.697 50.996 208.388 51.216 208.047 51.216L208.047 51.2079ZM209.12 47.395C209.055 47.395 208.982 47.3868 208.917 47.3705C208.494 47.2565 208.242 46.8247 208.356 46.401L208.559 45.6433C208.665 45.2197 209.104 44.9671 209.527 45.073C209.95 45.1789 210.202 45.6189 210.096 46.0425L209.893 46.8165C209.795 47.1668 209.478 47.4031 209.128 47.4031L209.12 47.395ZM210.072 43.5495C210.015 43.5495 209.95 43.5495 209.893 43.525C209.47 43.4273 209.202 43.0036 209.299 42.5718L209.478 41.806C209.576 41.3823 209.999 41.1053 210.421 41.2031C210.844 41.3008 211.113 41.7245 211.023 42.1482L210.844 42.9221C210.763 43.2888 210.438 43.5332 210.072 43.5332L210.072 43.5495ZM210.901 39.6714C210.853 39.6714 210.796 39.6714 210.747 39.6551C210.316 39.5655 210.039 39.15 210.129 38.7263L210.275 37.9523C210.356 37.5205 210.771 37.2435 211.202 37.325C211.633 37.4065 211.91 37.822 211.828 38.2538L211.674 39.0359C211.601 39.4107 211.267 39.6714 210.901 39.6714ZM211.609 35.7689C211.568 35.7689 211.528 35.7689 211.479 35.7607C211.048 35.6874 210.755 35.28 210.82 34.8482L210.942 34.0661C211.007 33.6343 211.414 33.341 211.845 33.4062C212.276 33.4714 212.569 33.8787 212.504 34.3105L212.382 35.0927C212.316 35.4837 211.983 35.7607 211.601 35.7607L211.609 35.7689ZM212.186 31.8501C212.186 31.8501 212.113 31.8501 212.081 31.8501C211.65 31.793 211.34 31.3938 211.397 30.962L211.495 30.1799C211.552 29.7481 211.926 29.4303 212.373 29.4874C212.804 29.5444 213.114 29.9355 213.065 30.3754L212.967 31.1738C212.91 31.5731 212.577 31.8582 212.186 31.8582L212.186 31.8501ZM212.634 27.9068C212.634 27.9068 212.585 27.9068 212.552 27.9068C212.113 27.8661 211.804 27.475 211.845 27.0351L211.918 26.2529C211.959 25.8211 212.341 25.4952 212.78 25.536C213.219 25.5767 213.536 25.9596 213.496 26.3996L213.423 27.198C213.382 27.6054 213.04 27.915 212.634 27.915L212.634 27.9068ZM212.951 23.9473C212.951 23.9473 212.918 23.9473 212.902 23.9473C212.463 23.9228 212.138 23.5562 212.162 23.1162L212.211 22.326C212.235 21.886 212.617 21.5601 213.048 21.5846C213.488 21.609 213.821 21.9838 213.789 22.4237L213.74 23.1896C213.715 23.6132 213.366 23.9473 212.951 23.9473ZM213.146 19.9959C213.146 19.9959 213.13 19.9959 213.122 19.9959C212.682 19.9796 212.341 19.6129 212.357 19.1811L212.382 18.3908C212.39 17.9509 212.796 17.5843 213.195 17.6169C213.634 17.625 213.976 17.9916 213.967 18.4316L213.943 19.23C213.927 19.6618 213.577 19.9959 213.154 19.9959L213.146 19.9959ZM213.211 16.0282C212.772 16.0282 212.422 15.6697 212.422 15.2379L212.422 14.4476C212.422 14.0076 212.772 13.6573 213.211 13.6492C213.65 13.6492 214 13.9995 214 14.4394L214 15.2379C214 15.6778 213.65 16.0282 213.211 16.0282ZM213.154 12.0605C212.731 12.0605 212.382 11.7264 212.365 11.2946L212.341 10.5043C212.325 10.0644 212.666 9.69776 213.105 9.68146C213.504 9.68146 213.911 10.0074 213.927 10.4473L213.951 11.2457C213.967 11.6857 213.626 12.0523 213.187 12.0605C213.179 12.0605 213.17 12.0605 213.162 12.0605L213.154 12.0605ZM212.967 8.10091C212.552 8.10091 212.203 7.77501 212.178 7.35951L212.129 6.57737C212.097 6.13742 212.43 5.76265 212.861 5.73006C213.292 5.68933 213.675 6.03151 213.707 6.46331L213.756 7.26174C213.78 7.70169 213.447 8.07646 213.016 8.10091C213 8.10091 212.983 8.10091 212.967 8.10091ZM212.658 4.14951C212.251 4.14951 211.91 3.83991 211.869 3.43254L211.796 2.65041C211.755 2.21861 212.072 1.82755 212.504 1.78681C212.943 1.73793 213.325 2.06381 213.374 2.49562L213.447 3.28589C213.488 3.72585 213.17 4.10877 212.731 4.14951C212.707 4.14951 212.682 4.14951 212.658 4.14951ZM212.227 0.206248C211.837 0.206248 211.495 -0.087056 211.446 -0.486264L211.349 -1.2684C211.292 -1.7002 211.601 -2.09942 212.032 -2.15645C212.471 -2.21348 212.861 -1.90388 212.918 -1.47208L213.016 -0.681798C213.073 -0.249997 212.764 0.149219 212.333 0.206248C212.3 0.206248 212.268 0.206248 212.235 0.206248L212.227 0.206248ZM211.674 -3.72072C211.292 -3.72072 210.95 -3.99772 210.893 -4.38879L210.771 -5.16277C210.698 -5.59457 210.991 -6.00193 211.422 -6.07526C211.853 -6.14859 212.26 -5.85528 212.333 -5.42348L212.463 -4.63321C212.528 -4.20141 212.235 -3.79404 211.804 -3.72886C211.763 -3.72886 211.723 -3.72072 211.682 -3.72072L211.674 -3.72072ZM210.999 -7.62323C210.625 -7.62323 210.291 -7.89209 210.218 -8.26687L210.072 -9.04085C209.99 -9.47265 210.267 -9.88817 210.698 -9.96963C211.129 -10.0511 211.544 -9.77411 211.625 -9.3423L211.78 -8.56017C211.861 -8.12836 211.576 -7.71286 211.153 -7.63138C211.105 -7.62323 211.056 -7.61509 211.007 -7.61509L210.999 -7.62323ZM210.202 -11.5095C209.836 -11.5095 209.511 -11.762 209.429 -12.1287L209.258 -12.8945C209.161 -13.3181 209.429 -13.7499 209.852 -13.8477C210.275 -13.9455 210.706 -13.6766 210.804 -13.253L210.975 -12.4708C211.072 -12.0472 210.804 -11.6235 210.373 -11.5258C210.316 -11.5095 210.259 -11.5095 210.202 -11.5095ZM209.283 -15.3631C208.933 -15.3631 208.608 -15.5994 208.518 -15.9578L208.323 -16.7237C208.209 -17.1473 208.47 -17.5791 208.892 -17.6932C209.315 -17.8073 209.746 -17.5547 209.86 -17.1229L210.064 -16.3489C210.169 -15.9253 209.917 -15.4935 209.494 -15.3875C209.429 -15.3712 209.364 -15.3631 209.299 -15.3631L209.283 -15.3631ZM208.242 -19.1923C207.9 -19.1923 207.583 -19.4204 207.485 -19.7626L207.266 -20.5203C207.144 -20.9439 207.38 -21.3839 207.803 -21.5061C208.226 -21.6283 208.665 -21.392 208.787 -20.9684L209.006 -20.2025C209.128 -19.7789 208.884 -19.3389 208.461 -19.2249C208.388 -19.2004 208.315 -19.1923 208.242 -19.1923ZM207.087 -22.9807C206.753 -22.9807 206.444 -23.1926 206.331 -23.5266L206.087 -24.2762C205.948 -24.6917 206.176 -25.1398 206.591 -25.2783C207.014 -25.4168 207.453 -25.1886 207.591 -24.7731L207.835 -24.0154C207.973 -23.5999 207.738 -23.1518 207.323 -23.0133C207.241 -22.9889 207.16 -22.9726 207.079 -22.9726L207.087 -22.9807ZM205.81 -26.7366C205.485 -26.7366 205.176 -26.9403 205.062 -27.2662L204.793 -28.0076C204.647 -28.4149 204.858 -28.8712 205.265 -29.026C205.672 -29.1808 206.127 -28.9608 206.282 -28.5534L206.55 -27.8039C206.697 -27.3884 206.485 -26.9403 206.07 -26.7937C205.981 -26.7611 205.891 -26.7448 205.802 -26.7448L205.81 -26.7366ZM204.419 -30.4518C204.102 -30.4518 203.801 -30.6391 203.679 -30.9569L203.386 -31.6901C203.224 -32.0975 203.419 -32.5619 203.826 -32.7248C204.232 -32.8878 204.696 -32.6922 204.858 -32.2849L205.151 -31.5435C205.314 -31.1361 205.111 -30.6717 204.704 -30.5169C204.606 -30.4762 204.509 -30.4599 204.419 -30.4599L204.419 -30.4518ZM202.915 -34.118C202.606 -34.118 202.313 -34.2972 202.191 -34.5987L201.874 -35.3238C201.695 -35.723 201.874 -36.1955 202.28 -36.3666C202.679 -36.5377 203.151 -36.3666 203.321 -35.9593L203.639 -35.226C203.809 -34.8268 203.63 -34.3543 203.224 -34.1832C203.126 -34.1424 203.012 -34.118 202.915 -34.118ZM201.296 -37.7354C200.995 -37.7354 200.711 -37.9065 200.58 -38.1916L200.247 -38.9004C200.06 -39.2996 200.223 -39.7722 200.621 -39.9596C201.02 -40.147 201.491 -39.9759 201.678 -39.5848L202.02 -38.8597C202.207 -38.4605 202.036 -37.9879 201.638 -37.8087C201.532 -37.7598 201.418 -37.7354 201.304 -37.7354L201.296 -37.7354ZM199.556 -41.2957C199.263 -41.2957 198.986 -41.4587 198.848 -41.7275L198.49 -42.4282C198.287 -42.8192 198.441 -43.2918 198.832 -43.4955C199.222 -43.6991 199.694 -43.5443 199.897 -43.1533L200.263 -42.4363C200.458 -42.0453 200.304 -41.5646 199.914 -41.369C199.8 -41.312 199.678 -41.2876 199.556 -41.2876L199.556 -41.2957ZM197.701 -44.799C197.425 -44.799 197.148 -44.9457 197.01 -45.2064L196.628 -45.8989C196.416 -46.2818 196.555 -46.7625 196.929 -46.9743C197.311 -47.1862 197.791 -47.0477 198.002 -46.6647L198.385 -45.9641C198.596 -45.5812 198.458 -45.1005 198.075 -44.8886C197.954 -44.8235 197.823 -44.7909 197.693 -44.7909L197.701 -44.799ZM195.733 -48.2371C195.465 -48.2371 195.196 -48.3756 195.05 -48.6282L194.643 -49.3044C194.416 -49.6792 194.538 -50.168 194.912 -50.3962C195.286 -50.6243 195.774 -50.5021 195.993 -50.1273L196.4 -49.4429C196.62 -49.0682 196.498 -48.5793 196.124 -48.3594C195.993 -48.286 195.855 -48.2453 195.717 -48.2453L195.733 -48.2371ZM193.521 -51.5286C193.285 -51.5286 193.049 -51.6345 192.895 -51.8382C192.74 -52.0419 192.578 -52.2456 192.407 -52.4574C192.138 -52.7996 192.187 -53.2966 192.529 -53.5736C192.87 -53.8506 193.366 -53.7936 193.643 -53.4514C193.814 -53.2314 193.985 -53.0277 194.139 -52.8159C194.408 -52.4737 194.342 -51.9686 194.001 -51.6997C193.854 -51.5857 193.684 -51.5368 193.513 -51.5368L193.521 -51.5286ZM190.992 -54.592C190.772 -54.592 190.552 -54.6816 190.39 -54.869L189.869 -55.4637C189.585 -55.7896 189.617 -56.2948 189.942 -56.5799C190.268 -56.8651 190.772 -56.8325 191.057 -56.5066L191.577 -55.9037C191.862 -55.5696 191.829 -55.0727 191.496 -54.7875C191.349 -54.6572 191.162 -54.592 190.975 -54.592L190.992 -54.592ZM188.348 -57.5494C188.137 -57.5494 187.925 -57.639 187.763 -57.802L187.226 -58.3804C186.925 -58.6982 186.949 -59.2033 187.267 -59.5048C187.584 -59.8062 188.088 -59.7818 188.389 -59.464L188.934 -58.8774C189.227 -58.5515 189.21 -58.0545 188.885 -57.7531C188.731 -57.6146 188.544 -57.5413 188.348 -57.5413L188.348 -57.5494ZM185.624 -60.4417C185.412 -60.4417 185.209 -60.5232 185.054 -60.6861L184.51 -61.2564C184.209 -61.5741 184.209 -62.0711 184.526 -62.3807C184.835 -62.6903 185.339 -62.6822 185.648 -62.3644L186.201 -61.7941C186.502 -61.4764 186.494 -60.9794 186.177 -60.6698C186.022 -60.5232 185.827 -60.4498 185.632 -60.4498L185.624 -60.4417ZM182.842 -63.2769C182.639 -63.2769 182.436 -63.3502 182.281 -63.5132L181.72 -64.0672C181.411 -64.3768 181.411 -64.8738 181.72 -65.1915C182.029 -65.5011 182.533 -65.5011 182.842 -65.1915L183.403 -64.6294C183.713 -64.3198 183.713 -63.8146 183.403 -63.505C183.249 -63.3502 183.046 -63.2688 182.842 -63.2688L182.842 -63.2769ZM180.012 -66.0633C179.817 -66.0633 179.613 -66.1366 179.459 -66.2832L178.89 -66.8291C178.572 -67.1306 178.564 -67.6357 178.865 -67.9534C179.166 -68.2712 179.67 -68.2793 179.988 -67.9779L180.557 -67.4239C180.874 -67.1224 180.882 -66.6173 180.573 -66.2995C180.419 -66.1366 180.207 -66.0551 180.004 -66.0551L180.012 -66.0633ZM177.133 -68.8007C176.938 -68.8007 176.743 -68.8741 176.596 -69.0126L176.019 -69.5503C175.701 -69.8517 175.677 -70.3487 175.978 -70.6746C176.279 -70.9923 176.775 -71.0168 177.1 -70.7153L177.686 -70.1695C178.003 -69.868 178.019 -69.371 177.727 -69.0452C177.572 -68.8822 177.361 -68.7926 177.149 -68.7926L177.133 -68.8007ZM174.213 -71.4893C174.026 -71.4893 173.831 -71.5545 173.684 -71.693L173.099 -72.2226C172.774 -72.5159 172.749 -73.0128 173.034 -73.3387C173.327 -73.6646 173.823 -73.6972 174.148 -73.4039L174.742 -72.8743C175.067 -72.581 175.092 -72.0759 174.799 -71.7582C174.644 -71.5871 174.425 -71.4975 174.213 -71.4975L174.213 -71.4893ZM171.245 -74.1209C171.058 -74.1209 170.879 -74.186 170.724 -74.3164L170.13 -74.8297C169.797 -75.1148 169.764 -75.62 170.049 -75.9458C170.334 -76.2799 170.83 -76.3125 171.163 -76.0273L171.765 -75.5059C172.099 -75.2207 172.131 -74.7156 171.846 -74.3897C171.692 -74.2105 171.472 -74.1127 171.245 -74.1127L171.245 -74.1209ZM168.219 -76.6954C168.04 -76.6954 167.861 -76.7524 167.715 -76.8828L167.105 -77.3879C166.763 -77.6649 166.714 -78.1619 166.991 -78.5041C167.268 -78.8463 167.764 -78.8951 168.105 -78.6181L168.723 -78.113C169.057 -77.836 169.106 -77.3309 168.829 -76.9968C168.675 -76.8095 168.447 -76.7117 168.219 -76.7117L168.219 -76.6954ZM165.137 -79.1884C164.966 -79.1884 164.795 -79.2455 164.649 -79.3595L164.031 -79.8484C163.689 -80.1172 163.624 -80.6142 163.892 -80.9645C164.161 -81.3067 164.657 -81.3719 165.007 -81.103L165.633 -80.6142C165.974 -80.3453 166.039 -79.8484 165.763 -79.498C165.608 -79.3025 165.373 -79.1966 165.137 -79.1966L165.137 -79.1884ZM161.973 -81.5837C161.81 -81.5837 161.648 -81.6326 161.509 -81.7385L160.867 -82.2029C160.509 -82.4555 160.428 -82.9525 160.68 -83.3109C160.932 -83.6694 161.428 -83.7509 161.786 -83.4983L162.436 -83.0339C162.794 -82.7732 162.868 -82.2844 162.615 -81.9259C162.461 -81.7141 162.217 -81.6 161.973 -81.6L161.973 -81.5837ZM158.712 -83.8405C158.565 -83.8405 158.419 -83.8812 158.281 -83.9709C158.061 -84.1175 157.841 -84.256 157.622 -84.3945C157.248 -84.6308 157.142 -85.1196 157.37 -85.4862C157.605 -85.861 158.093 -85.9669 158.459 -85.7388C158.679 -85.6003 158.907 -85.4537 159.134 -85.307C159.5 -85.0707 159.606 -84.5819 159.37 -84.2071C159.216 -83.9709 158.964 -83.8487 158.703 -83.8487L158.712 -83.8405ZM155.296 -85.8529C155.174 -85.8529 155.052 -85.8855 154.93 -85.9425C154.694 -86.0647 154.466 -86.1788 154.247 -86.2847C153.848 -86.4721 153.685 -86.9446 153.872 -87.3438C154.059 -87.7349 154.531 -87.906 154.93 -87.7186C155.166 -87.6045 155.41 -87.4823 155.662 -87.352C156.052 -87.1483 156.198 -86.6757 156.003 -86.2847C155.865 -86.0158 155.588 -85.8529 155.296 -85.8529ZM151.62 -87.2949C151.563 -87.2949 151.506 -87.2949 151.457 -87.3112C151.221 -87.3601 150.993 -87.4008 150.774 -87.4171C150.335 -87.4497 150.017 -87.8408 150.05 -88.2726C150.082 -88.7125 150.473 -89.0303 150.904 -88.9977C151.18 -88.9733 151.473 -88.9325 151.782 -88.8673C152.213 -88.7777 152.482 -88.3541 152.392 -87.9304C152.311 -87.5556 151.986 -87.3031 151.62 -87.3031L151.62 -87.2949Z" fill="#F4D099"/>
<path d="M5 167L33.41 216.62L48.33 204.48L64.59 212.92L66.32 189.06L66.35 189.04L86.11 172.63L5 167Z" fill="#FFD954"/>
<path d="M55.51 198.51L64.59 212.93L66.32 189.07L66.33 189.05L5 167L55.42 198.45L55.51 198.51Z" fill="#EB991D"/>
<path d="M55.5101 198.51L64.6001 212.92L48.3301 204.49L55.5101 198.51Z" fill="#BA4300"/>
</g>
<defs>
<clipPath id="clip0_5_753">
<rect width="240" height="259" fill="white"/>
</clipPath>
</defs>
</svg>
