<svg width="153" height="174" viewBox="0 0 153 174" fill="none" xmlns="http://www.w3.org/2000/svg">
      <path d="M45.1514 10.1477H41.4868V18.8459H45.1514V10.1477Z" fill="#F0F2F3" />
      <path d="M45.1514 10.1477H41.4868V18.8459H45.1514V10.1477Z" stroke="#F0F2F3" />
      <path
        d="M43.3196 12.1125C46.4678 12.1125 49.02 9.54686 49.02 6.38194C49.02 3.21703 46.4678 0.651367 43.3196 0.651367C40.1713 0.651367 37.6191 3.21703 37.6191 6.38194C37.6191 9.54686 40.1713 12.1125 43.3196 12.1125Z"
        fill="#F0F2F3"
      />
      <path
        d="M43.3196 12.1125C46.4678 12.1125 49.02 9.54686 49.02 6.38194C49.02 3.21703 46.4678 0.651367 43.3196 0.651367C40.1713 0.651367 37.6191 3.21703 37.6191 6.38194C37.6191 9.54686 40.1713 12.1125 43.3196 12.1125Z"
        stroke="#F0F2F3"
      />
      <path
        d="M51.6715 18.4761H34.8347C30.9869 18.4761 27.8721 21.6074 27.8721 25.4756H58.6341C58.6341 21.6074 55.5193 18.4761 51.6715 18.4761Z"
        fill="#F0F2F3"
      />
      <path
        d="M51.6715 18.4761H34.8347C30.9869 18.4761 27.8721 21.6074 27.8721 25.4756H58.6341C58.6341 21.6074 55.5193 18.4761 51.6715 18.4761Z"
        stroke="#F0F2F3"
      />
      <path d="M109.538 10.1477H105.873V18.8459H109.538V10.1477Z" fill="#F0F2F3" />
      <path d="M109.538 10.1477H105.873V18.8459H109.538V10.1477Z" stroke="#F0F2F3" />
      <path
        d="M107.704 12.1125C110.853 12.1125 113.405 9.54686 113.405 6.38194C113.405 3.21703 110.853 0.651367 107.704 0.651367C104.556 0.651367 102.004 3.21703 102.004 6.38194C102.004 9.54686 104.556 12.1125 107.704 12.1125Z"
        fill="#F0F2F3"
      />
      <path
        d="M107.704 12.1125C110.853 12.1125 113.405 9.54686 113.405 6.38194C113.405 3.21703 110.853 0.651367 107.704 0.651367C104.556 0.651367 102.004 3.21703 102.004 6.38194C102.004 9.54686 104.556 12.1125 107.704 12.1125Z"
        stroke="#F0F2F3"
      />
      <path
        d="M116.056 18.4761H99.2195C95.3717 18.4761 92.2568 21.6074 92.2568 25.4756H123.019C123.019 21.6074 119.904 18.4761 116.056 18.4761Z"
        fill="#F0F2F3"
      />
      <path
        d="M116.056 18.4761H99.2195C95.3717 18.4761 92.2568 21.6074 92.2568 25.4756H123.019C123.019 21.6074 119.904 18.4761 116.056 18.4761Z"
        stroke="#F0F2F3"
      />
      <rect y="23.9998" width="153" height="150" rx="20" fill="#F0F2F3" />
      <rect y="23.9998" width="153" height="150" rx="20" stroke="#F0F2F3" />
      <path
        d="M110.56 41.9998H43.4402C32.7037 41.9998 24 50.7302 24 61.4998C24 72.2693 32.7037 80.9998 43.4402 80.9998H110.56C121.296 80.9998 130 72.2693 130 61.4998C130 50.7302 121.296 41.9998 110.56 41.9998Z"
        fill="#FAFAFA"
      />
      <path
        d="M46.5164 73.497C53.2739 73.497 58.752 67.99 58.752 61.1968C58.752 54.4035 53.2739 48.8965 46.5164 48.8965C39.7588 48.8965 34.2808 54.4035 34.2808 61.1968C34.2808 67.99 39.7588 73.497 46.5164 73.497Z"
        fill="#F0F2F3"
      />
      <path
        d="M118.722 61.1968C118.722 67.9916 113.245 73.497 106.486 73.497C99.727 73.497 94.2505 67.9916 94.2505 61.1968C94.2505 54.4019 99.727 48.8965 106.486 48.8965C113.245 48.8965 118.722 54.4019 118.722 61.1968Z"
        fill="#F0F2F3"
      />
    </svg>