<svg width="532" height="325" viewBox="0 0 532 325" fill="none" xmlns="http://www.w3.org/2000/svg">
<g opacity="0.1" clip-path="url(#clip0_1220_5571)">
<path d="M343.201 110H60.3906V140.7H343.201V110Z" fill="#456AFF"/>
<path opacity="0.9" d="M343.201 140.7H60.3906V303.96H343.201V140.7Z" fill="#0B1E49"/>
<path d="M313.791 199.58H115.881V211.59H313.791V199.58Z" fill="#8FD4AF"/>
<path d="M390.302 199.58H323.512V211.59H390.302V199.58Z" fill="#8FD4AF"/>
<path d="M174.541 220.57H115.881V232.58H174.541V220.57Z" fill="#8FD4AF"/>
<path d="M294.961 220.57H184.311V232.58H294.961V220.57Z" fill="#8FD4AF"/>
<path d="M243.761 241.57H115.881V253.58H243.761V241.57Z" fill="#8FD4AF"/>
<path d="M86.2351 212.496C90.05 188.838 73.9639 166.567 50.3058 162.752C26.6478 158.937 4.37661 175.023 0.56179 198.682C-3.25303 222.34 12.8331 244.611 36.4911 248.426C60.1492 252.24 82.4203 236.154 86.2351 212.496Z" fill="#A7DAFF"/>
<path d="M37.9191 227.42C36.3891 227.42 34.8691 226.84 33.6991 225.67L12.8791 204.85L21.3191 196.41L37.9191 213.01L65.4491 185.48L73.8891 193.92L42.1391 225.67C40.9791 226.83 39.4491 227.42 37.9191 227.42Z" fill="#5551FE"/>
</g>
<path d="M484.093 240.568C481.062 240.568 478.08 240.833 475.224 241.297C470.463 212.837 442.651 191 409.026 191C375.402 191 348.066 212.483 342.98 240.59C316.947 241.032 296 259.733 296 282.784C296 305.835 317.448 325 343.907 325H484.093C510.552 325 532 306.1 532 282.784C532 259.468 510.552 240.568 484.093 240.568Z" fill="#FAFAFA"/>
<path d="M405.666 219.117C401.658 219.117 397.716 219.412 393.94 219.927C387.646 188.281 350.878 164 306.425 164C261.972 164 225.833 187.888 219.109 219.142C184.692 219.633 157 240.427 157 266.059C157 291.69 185.355 313 220.334 313H405.666C440.645 313 469 291.984 469 266.059C469 240.133 440.645 219.117 405.666 219.117Z" fill="#FAFAFA"/>
<g clip-path="url(#clip1_1220_5571)">
<path d="M359.2 117.591C367.633 86.1731 348.873 53.8653 317.31 45.5156C285.871 37.1993 253.65 55.7974 245.246 87.1091C240.192 105.939 244.911 125.086 256.297 139.203C261.096 145.152 262.864 152.975 260.887 160.342L308.979 173.206C310.928 165.944 316.197 159.983 323.243 157.305C340.314 150.815 354.12 136.531 359.205 117.588L359.2 117.591Z" fill="#FFCE22"/>
<path d="M309.212 173.273L260.647 160.282C257.492 159.438 254.249 161.304 253.405 164.449C252.56 167.595 254.434 170.829 257.59 171.673L306.155 184.664C309.311 185.508 312.554 183.642 313.398 180.497C314.242 177.351 312.368 174.117 309.212 173.273Z" fill="#DDDCE4"/>
<path d="M306.156 184.664L257.591 171.673C254.435 170.829 251.192 172.695 250.348 175.84C249.504 178.986 251.377 182.22 254.533 183.064L303.098 196.055C306.254 196.899 309.497 195.033 310.341 191.888C311.185 188.742 309.312 185.508 306.156 184.664Z" fill="#E6E5EB"/>
<path d="M259.967 184.518C262.131 191.893 267.988 197.998 275.978 200.136C283.968 202.273 292.099 199.909 297.667 194.602L259.967 184.518Z" fill="#D0D3D9"/>
<path d="M380.153 47.0138C379.637 47.0138 379.167 47.3817 378.979 47.9627C377.476 52.3588 374.674 55.8835 371.168 57.8201C370.714 58.0718 370.401 58.6335 370.401 59.2532L370.401 59.2919C370.401 59.9116 370.682 60.4732 371.136 60.725C374.565 62.6229 377.304 66.0119 378.838 70.2531C379.042 70.8147 379.496 71.1633 379.997 71.1633L380.31 71.1633C380.811 71.1633 381.265 70.8147 381.468 70.2531C383.002 66.0119 385.742 62.6229 389.17 60.725C389.624 60.4732 389.906 59.9116 389.906 59.2919L389.906 59.2532C389.906 58.6335 389.609 58.0718 389.139 57.8201C385.632 55.8835 382.83 52.3395 381.327 47.9627C381.124 47.3817 380.654 47.0138 380.153 47.0138Z" fill="#FFCE22"/>
</g>
<path d="M274.661 65.4945C274.236 65.6377 273.816 65.8266 273.459 66.1008C273.219 66.2853 272.976 66.4652 272.771 66.6899C272.572 66.9089 272.392 67.1515 272.229 67.3973C271.977 67.7744 271.797 68.2208 271.678 68.6543C271.557 69.0969 271.502 69.5811 271.541 70.0391C271.591 70.6134 271.802 71.0773 272.266 71.428C272.72 71.7711 273.289 71.8963 273.844 71.7338C274.866 71.4351 275.785 70.6818 276.258 69.7232C276.733 68.7615 276.93 67.5794 276.532 66.552C276.359 66.1045 276.121 65.7287 275.691 65.4842C275.302 65.263 274.731 65.174 274.299 65.3194C273.865 65.4655 273.446 65.7406 273.232 66.1606C273.022 66.5708 272.894 67.1052 273.067 67.5521C273.121 67.6926 273.16 67.8359 273.183 67.9847L273.113 67.5225C273.139 67.7115 273.141 67.8996 273.12 68.0893L273.176 67.6088C273.15 67.813 273.099 68.0097 273.026 68.2017L273.206 67.7529C273.123 67.9569 273.017 68.1472 272.887 68.3243L273.169 67.9514C273.045 68.1146 272.904 68.2599 272.743 68.3874L273.106 68.1028C272.965 68.2103 272.815 68.2997 272.653 68.3707L273.076 68.187C273 68.2184 272.923 68.2454 272.844 68.2685L275.147 69.9632C275.133 69.7995 275.135 69.6372 275.15 69.4737L275.095 69.9542C275.122 69.7169 275.18 69.4876 275.266 69.2647L275.085 69.7135C275.18 69.4775 275.304 69.2571 275.454 69.0523L275.173 69.4253C275.317 69.2349 275.482 69.0644 275.668 68.914L275.305 69.1986C275.482 69.0608 275.67 68.9462 275.875 68.8552L275.452 69.0389C275.521 69.0099 275.59 68.9836 275.661 68.9598C276.103 68.8109 276.495 68.5305 276.729 68.1185C276.95 67.7293 277.039 67.159 276.893 66.727C276.747 66.2929 276.472 65.8736 276.052 65.6593C275.631 65.4441 275.123 65.3389 274.661 65.4945Z" fill="#363739"/>
<path d="M298.511 70.6967C298.168 70.7924 297.853 70.9208 297.526 71.0674C297.214 71.2075 296.919 71.4222 296.685 71.67C296.553 71.8102 296.439 71.9748 296.328 72.1316C296.304 72.1665 296.281 72.2016 296.262 72.24C296.162 72.4436 296.055 72.6702 296.014 72.8997C295.935 73.353 295.904 73.831 296.069 74.2731C296.222 74.6829 296.335 74.8939 296.631 75.2171C296.78 75.3807 296.965 75.5224 297.162 75.6227C297.703 75.8984 298.279 75.9704 298.868 75.825C299.547 75.6575 300.059 75.1321 300.404 74.5507C300.57 74.2712 300.692 73.9667 300.886 73.7042L300.604 74.0771C300.667 73.9946 300.736 73.9184 300.816 73.853L300.453 74.1376C300.508 74.0953 300.565 74.0597 300.628 74.0312C300.839 73.9161 301.007 73.7591 301.132 73.5602C301.294 73.3796 301.401 73.1678 301.453 72.9248C301.523 72.6865 301.53 72.4493 301.473 72.2133C301.457 71.9788 301.384 71.7607 301.254 71.5592C300.998 71.1691 300.619 70.8313 300.148 70.7343L299.667 70.6791C299.35 70.6872 299.055 70.772 298.782 70.9333C298.719 70.9619 298.663 70.9983 298.607 71.0397C298.448 71.1592 298.248 71.2967 298.107 71.4564C297.912 71.6778 297.731 71.922 297.584 72.1797C297.44 72.4339 297.327 72.71 297.151 72.9449L297.433 72.572C297.389 72.6292 297.341 72.6823 297.285 72.7282L297.648 72.4436C297.611 72.4719 297.573 72.4961 297.531 72.5154L297.954 72.3316C297.916 72.3475 297.878 72.3585 297.838 72.3651L298.3 72.2946C298.257 72.3001 298.214 72.2999 298.17 72.295L298.651 72.3502C298.604 72.3436 298.56 72.3326 298.516 72.3157L298.965 72.4958C298.932 72.4811 298.901 72.4639 298.871 72.4431L299.244 72.725C299.21 72.6989 299.18 72.6701 299.152 72.637L299.437 72.9999C299.406 72.9593 299.381 72.9168 299.359 72.8703L299.543 73.2933C299.52 73.2373 299.504 73.1804 299.493 73.1207L299.563 73.5829C299.552 73.5054 299.551 73.4286 299.559 73.3507L299.503 73.8312C299.513 73.7609 299.529 73.6933 299.555 73.627L299.374 74.0758C299.398 74.0182 299.428 73.9649 299.464 73.9144L299.182 74.2873C299.241 74.2106 299.309 74.1436 299.384 74.0832L299.021 74.3678C299.13 74.2851 299.248 74.2203 299.372 74.1652L298.949 74.349C299.131 74.2712 299.321 74.2151 299.512 74.162C299.743 74.1037 299.945 73.995 300.116 73.8359C300.313 73.7062 300.468 73.5345 300.579 73.3207C300.711 73.1068 300.78 72.8771 300.787 72.6316C300.836 72.3963 300.821 72.1622 300.744 71.9292C300.598 71.4951 300.323 71.0758 299.903 70.8614C299.468 70.6395 298.99 70.5633 298.511 70.6967Z" fill="#363739"/>
<path d="M278.91 78.2713C276.081 80.3611 273.629 83.1101 272.261 86.3838C270.932 89.5642 270.822 93.507 273.76 95.8451C275.061 96.8799 276.697 97.412 278.352 97.0468C280.12 96.6568 281.502 95.28 282.677 93.9849C285.102 91.3125 287.38 87.8855 287.616 84.1854C287.848 80.5462 284.977 76.408 280.971 76.9113C280.005 77.0326 279.184 77.7062 279.205 78.7524C279.223 79.6486 280.075 80.6397 281.046 80.5176C282.892 80.2857 284.083 82.1044 284.024 83.9848C283.95 86.361 282.337 88.7657 280.89 90.5436C280.119 91.4908 279.252 92.5778 278.207 93.2346C277.418 93.7311 276.883 93.6567 276.187 93.1796C274.527 92.0409 274.767 89.6798 275.507 87.9067C276.581 85.3313 278.522 83.0192 280.756 81.3691C281.539 80.7909 281.915 79.7918 281.382 78.8971C280.921 78.1241 279.697 77.6897 278.91 78.2713Z" fill="#363739"/>
<defs>
<clipPath id="clip0_1220_5571">
<rect width="390" height="152" fill="white" transform="translate(0 110)"/>
</clipPath>
<clipPath id="clip1_1220_5571">
<rect width="161.857" height="191.409" fill="white" transform="matrix(0.966037 0.258403 -0.259236 0.965814 268.62 0.0292053)"/>
</clipPath>
</defs>
</svg>
