<svg width="471" height="342" viewBox="0 0 471 342" fill="none" xmlns="http://www.w3.org/2000/svg">
<g opacity="0.1">
<path opacity="0.9" d="M125.048 0L73.3262 51.7181V302H304.735V0H125.048Z" fill="#0B1E49"/>
<path d="M125.048 51.7181V0L73.3262 51.7181H125.048Z" fill="#FFC403"/>
<path d="M290.844 35C248.95 35 215 68.9365 215 110.815C215 152.693 248.95 186.63 290.844 186.63C332.738 186.63 366.688 152.693 366.688 110.815H290.844V35Z" fill="#A7DAFF"/>
<path opacity="0.9" d="M290.844 35V110.815H366.688C366.688 68.9365 332.738 35 290.844 35Z" fill="#0B1E49"/>
<path d="M158.583 129.561H39.7914C24.4439 129.561 12 117.122 12 101.781C12 86.4391 24.4439 74 39.7914 74H158.599C173.946 74 186.39 86.4391 186.39 101.781C186.39 117.122 173.946 129.561 158.599 129.561H158.583Z" fill="#5551FE"/>
<path d="M37.8769 113.678C44.4235 113.678 49.7305 108.373 49.7305 101.829C49.7305 95.2845 44.4235 89.9795 37.8769 89.9795C31.3304 89.9795 26.0233 95.2845 26.0233 101.829C26.0233 108.373 31.3304 113.678 37.8769 113.678Z" fill="white"/>
<path d="M161.502 89.9795H70.3109C63.7643 89.9795 58.4573 95.2845 58.4573 101.829C58.4573 108.373 63.7643 113.678 70.3109 113.678H161.502C168.049 113.678 173.356 108.373 173.356 101.829C173.356 95.2845 168.049 89.9795 161.502 89.9795Z" fill="#FFC403"/>
</g>
<g clip-path="url(#clip0_1220_5569)">
<path d="M363.324 150.806H109.906C105.488 150.806 101.906 154.388 101.906 158.806V311.769C101.906 316.187 105.488 319.769 109.906 319.769H363.324C367.742 319.769 371.324 316.187 371.324 311.769V158.806C371.324 154.388 367.742 150.806 363.324 150.806Z" fill="#3F6297"/>
<path d="M359.859 309.424V160.001L112.224 160.001V309.424H359.859Z" fill="white"/>
<path d="M237.196 235.339H220.707V254.943H237.196V235.339Z" fill="#77C763"/>
<path d="M264.252 218.345H247.763V254.943H264.252V218.345Z" fill="#75B9F8"/>
<path d="M291.309 201.34H274.82V254.933H291.309V201.34Z" fill="#FFD054"/>
<path d="M295.894 265.966H167.515V271.768H295.894V265.966Z" fill="#F1F2F4"/>
<path d="M295.894 279.767H167.515V285.57H295.894V279.767Z" fill="#DDDCE4"/>
<g opacity="0.7" clip-path="url(#clip1_1220_5569)">
<path d="M183.695 226.795C183.695 226.795 183.723 226.746 183.736 226.719C183.785 226.636 183.826 226.546 183.868 226.463C183.902 226.401 183.937 226.331 183.965 226.269C183.992 226.214 184.013 226.165 184.034 226.11C184.075 226.013 184.124 225.916 184.165 225.812C184.179 225.785 184.186 225.764 184.193 225.736C184.242 225.612 184.297 225.48 184.338 225.349C184.338 225.349 184.338 225.342 184.338 225.335C184.553 224.733 184.712 224.11 184.809 223.46C184.83 223.301 184.85 223.142 184.871 222.983C184.871 222.941 184.871 222.899 184.878 222.858C184.885 222.74 184.899 222.616 184.906 222.498C184.913 222.332 184.92 222.166 184.92 222L210.993 222C211.007 231.548 207.215 240.716 200.454 247.462L182.02 229.03C182.685 228.366 183.245 227.611 183.688 226.802L183.695 226.795Z" fill="#FFCE22"/>
<path d="M174.996 212.071L174.996 186C194.876 186 210.999 202.115 210.999 222L184.926 222C184.926 216.513 180.476 212.071 174.996 212.071Z" fill="#0DB99A"/>
<path d="M140.231 212.687C144.445 196.946 158.7 186 174.996 186L174.996 212.071C174.733 212.071 174.477 212.085 174.221 212.106C174.186 212.106 174.159 212.106 174.124 212.113C173.861 212.133 173.605 212.168 173.349 212.209L173.335 212.209C168.644 212.998 165.066 217.081 165.066 222C165.066 226.919 168.927 231.32 173.896 231.867C173.896 231.867 173.903 231.867 173.91 231.867C174.152 231.894 174.394 231.908 174.643 231.915C174.692 231.915 174.74 231.915 174.788 231.915C174.858 231.915 174.934 231.915 175.003 231.915C175.169 231.915 175.335 231.915 175.501 231.901C175.743 231.887 175.986 231.867 176.221 231.839C176.262 231.839 176.311 231.825 176.352 231.825C176.588 231.791 176.823 231.756 177.058 231.701C177.079 231.701 177.107 231.687 177.127 231.687C177.349 231.638 177.57 231.583 177.792 231.514C177.819 231.507 177.854 231.5 177.882 231.486C178.103 231.417 178.317 231.341 178.532 231.265C178.587 231.244 178.643 231.223 178.698 231.195C178.899 231.112 179.099 231.029 179.293 230.933C179.355 230.905 179.418 230.87 179.48 230.836C179.618 230.766 179.757 230.69 179.888 230.614C179.978 230.559 180.075 230.51 180.165 230.455C180.31 230.365 180.449 230.275 180.587 230.178C180.684 230.109 180.781 230.04 180.885 229.971C180.982 229.902 181.072 229.825 181.161 229.756C181.307 229.646 181.445 229.521 181.584 229.403C181.646 229.348 181.708 229.293 181.77 229.23C181.847 229.154 181.93 229.085 182.006 229.009L200.44 247.441C188.919 258.962 171.093 261.307 156.984 253.157C142.895 245.027 136.01 228.421 140.231 212.687Z" fill="#9AF3E3"/>
</g>
</g>
<g clip-path="url(#clip2_1220_5569)">
<path d="M454.797 318.328C449.968 323.157 442.129 323.157 437.299 318.328L396.69 277.719L414.188 260.22L454.797 300.83C459.627 305.659 459.627 313.499 454.797 318.328Z" fill="#CDCFD7"/>
<path d="M398.525 274.749C421.498 260.012 428.174 229.443 413.437 206.47C398.701 183.498 368.132 176.822 345.159 191.558C322.187 206.295 315.51 236.864 330.247 259.837C344.984 282.809 375.553 289.485 398.525 274.749Z" fill="white"/>
<path d="M420.613 206.63C435.266 233.572 425.304 267.291 398.362 281.944C371.42 296.596 337.701 286.634 323.048 259.692C308.395 232.75 318.358 199.031 345.3 184.378C372.242 169.726 405.961 179.688 420.613 206.63Z" stroke="#FF5838" stroke-width="15"/>
<path d="M397.827 260.116C391.037 266.579 381.867 270.548 371.775 270.548C350.939 270.548 334.001 253.596 334.001 232.774C334.001 211.952 350.953 195 371.775 195C392.597 195 409.549 211.952 409.549 232.774C409.549 239.011 408.032 244.907 405.339 250.095" fill="white"/>
<path d="M397.827 260.116C391.037 266.579 381.867 270.548 371.775 270.548C350.939 270.548 334.001 253.596 334.001 232.774C334.001 211.952 350.953 195 371.775 195C392.597 195 409.549 211.952 409.549 232.774C409.549 239.011 408.032 244.907 405.339 250.095" stroke="#D1D1D1" stroke-width="3" stroke-linecap="round" stroke-linejoin="round"/>
<path d="M371.818 238.855H363.511L362.009 243.008H357.062L365.368 221.576H370.343L378.649 243.008H373.306L371.803 238.855H371.818ZM370.343 234.702L367.664 227.232L364.986 234.702H370.358H370.343Z" fill="#FF5838"/>
<path d="M384.872 221.576V243.008H380.081V221.576H384.872Z" fill="#FF5838"/>
</g>
<path d="M78.6273 262.852C35.6703 262.381 0.470448 296.818 -4.9234e-05 339.775L47.3933 340.294C47.5771 323.515 61.3287 310.069 78.1082 310.253C94.8876 310.437 108.334 324.181 108.15 340.96L155.543 341.479C156.014 298.522 121.576 263.322 78.6273 262.852Z" fill="#43CAFF"/>
<path d="M60.2261 279.302C60.2322 279.445 60.2326 279.587 60.2239 279.73C60.2157 279.863 60.1153 280.291 60.2241 279.861C60.1474 280.164 60.0933 280.472 60.008 280.773C59.8438 281.355 59.6453 281.928 59.5291 282.522C59.2483 283.956 59.3822 285.528 60.5482 286.56C61.5941 287.486 62.9992 287.73 64.3481 287.457C65.7016 287.183 66.7883 286.32 67.561 285.206C68.4083 283.985 68.7907 282.498 69.1217 281.072C69.298 280.312 68.9419 279.416 68.1221 279.209C67.3788 279.021 66.4425 279.393 66.2535 280.207C66.1318 280.732 66.0071 281.257 65.8523 281.773C65.7751 282.03 65.6908 282.286 65.5951 282.538C65.5509 282.654 65.4714 282.787 65.4448 282.908C65.4524 282.873 65.5989 282.594 65.4807 282.826C65.4433 282.9 65.4077 282.974 65.3691 283.047C65.2541 283.264 65.127 283.475 64.9848 283.675C64.9902 283.668 64.8793 283.835 64.8684 283.833C64.8865 283.835 65.0752 283.598 64.9235 283.765C64.8234 283.875 64.7231 283.984 64.6142 284.086C64.5696 284.128 64.2646 284.361 64.4888 284.206C64.7193 284.047 64.3918 284.263 64.3454 284.29C64.2648 284.337 64.1824 284.381 64.0982 284.421C64.0562 284.441 63.9923 284.46 63.952 284.486C64.2305 284.303 64.1762 284.403 64.0125 284.456C63.8198 284.517 63.6249 284.549 63.428 284.591C63.2429 284.63 63.7794 284.571 63.5907 284.573C63.5383 284.574 63.4857 284.58 63.4332 284.582C63.3161 284.585 63.1988 284.583 63.0819 284.574C63.0352 284.57 62.9729 284.554 62.9283 284.558C62.9445 284.557 63.3248 284.643 63.099 284.583C63.0138 284.561 62.9278 284.543 62.8437 284.516C62.7964 284.501 62.7503 284.48 62.7026 284.467C62.5294 284.42 63.0073 284.629 62.8529 284.538C62.7579 284.482 62.6626 284.426 62.5679 284.37C62.3796 284.258 62.6782 284.456 62.6913 284.475C62.6682 284.442 62.6104 284.402 62.5835 284.374C62.5485 284.339 62.5171 284.3 62.4826 284.265C62.381 284.159 62.4895 284.146 62.572 284.392C62.5446 284.31 62.4718 284.21 62.4252 284.135C62.323 283.971 62.5146 284.425 62.462 284.242C62.4414 284.171 62.4163 284.1 62.3989 284.028C62.385 283.97 62.3766 283.912 62.3639 283.854C62.3104 283.611 62.3845 283.958 62.3779 283.988C62.4001 283.886 62.3717 283.738 62.3771 283.631C62.3832 283.51 62.412 283.387 62.4134 283.267C62.413 283.298 62.3393 283.639 62.397 283.387C62.4147 283.309 62.4293 283.231 62.4472 283.154C62.7377 281.902 63.277 280.685 63.2211 279.374C63.1878 278.595 62.6089 277.827 61.7613 277.844C60.9945 277.86 60.1904 278.465 60.2261 279.302Z" fill="#363739"/>
<path d="M82.1846 277.637C80.213 279.987 81.0375 283.622 83.7386 285.136C85.0429 285.868 86.6777 286.115 88.1413 285.699C89.4878 285.315 90.5962 284.521 91.475 283.507C92.4351 282.4 93.0995 281.155 93.6988 279.849C94.0521 279.078 93.3809 278.049 92.5566 277.852C91.5748 277.617 90.8075 278.093 90.4292 278.918C90.3913 279.001 90.2014 279.483 90.3635 279.065C90.3078 279.209 90.2224 279.349 90.1506 279.486C90.0218 279.733 89.8867 279.976 89.7435 280.216C89.5804 280.488 89.4069 280.756 89.22 281.015C89.1277 281.143 89.0323 281.269 88.9331 281.392C88.884 281.453 88.834 281.514 88.783 281.574L88.9035 281.432C88.8067 281.658 88.4301 281.913 88.2377 282.072C88.1792 282.121 88.1196 282.168 88.0589 282.214C87.9133 282.32 87.938 282.305 88.1328 282.169C88.084 282.241 87.9247 282.301 87.8433 282.347C87.7114 282.421 87.573 282.48 87.4382 282.549C87.2681 282.619 87.2992 282.61 87.5314 282.522C87.459 282.547 87.3858 282.57 87.3119 282.591C87.1611 282.634 87.0078 282.659 86.8554 282.694C86.5288 282.769 87.2129 282.689 86.7614 282.701C86.6149 282.704 86.4709 282.691 86.3249 282.687C86.1321 282.666 86.1592 282.672 86.4064 282.705C86.3247 282.69 86.2434 282.673 86.1628 282.653C86.0514 282.626 85.7665 282.586 85.6879 282.505C85.8994 282.6 85.92 282.608 85.7499 282.529C85.694 282.503 85.6392 282.474 85.5852 282.445C85.4579 282.376 85.3399 282.297 85.2179 282.221C85.0689 282.114 85.0846 282.126 85.2652 282.258C85.2029 282.206 85.1426 282.152 85.084 282.096C85.0178 282.033 84.6128 281.687 84.9435 281.977C84.8462 281.891 84.7768 281.733 84.7155 281.624C84.5123 281.261 84.7422 281.814 84.6513 281.512C84.6047 281.357 84.567 281.201 84.5228 281.045C84.4931 280.864 84.4924 280.887 84.521 281.114C84.5136 281.034 84.5091 280.953 84.5073 280.873C84.5041 280.732 84.5098 280.591 84.5235 280.451C84.5643 280.03 84.4379 280.648 84.5452 280.34C84.5981 280.187 84.6443 280.032 84.6974 279.88C84.7696 279.715 84.7611 279.731 84.6719 279.928C84.7106 279.856 84.7519 279.786 84.7958 279.717C84.8842 279.579 84.9844 279.45 85.0906 279.323C85.6442 278.663 85.2764 277.51 84.5337 277.119C83.6499 276.654 82.7755 276.932 82.1846 277.637Z" fill="#363739"/>
<path d="M52.8928 293.231C54.926 295.43 57.9677 296.413 60.9493 296.941C64.5877 297.585 68.308 297.984 72.0037 298.176C79.0695 298.543 86.3035 297.938 92.9373 295.566C96.4946 294.295 99.7883 292.579 102.739 290.337C103.417 289.821 103.368 288.766 102.792 288.206C102.148 287.579 101.172 287.633 100.492 288.15C90.1426 296.017 75.8362 296.072 63.2378 294.271C60.3788 293.862 57.2204 293.29 55.247 291.156C53.8799 289.677 51.5312 291.758 52.8928 293.231Z" fill="#363739"/>
<g clip-path="url(#clip3_1220_5569)">
<path d="M357.538 52H287.256C263.367 52 244.001 71.3742 244.001 95.2732C244.001 119.172 263.367 138.546 287.256 138.546H293.727L287.256 173.253L323.442 138.546H357.538C381.427 138.546 400.793 119.172 400.793 95.2732C400.793 71.3742 381.427 52 357.538 52Z" fill="#F0EFF3"/>
<g clip-path="url(#clip4_1220_5569)">
<path d="M375.707 78.1318H299.94V82.7255H375.707V78.1318Z" fill="white"/>
<path d="M292.44 78.1318H271.178V82.7255H292.44V78.1318Z" fill="white"/>
<path d="M375.706 93.6048H333.699V98.1985H375.706V93.6048Z" fill="#77C763"/>
<path d="M323.073 93.6048H271.178V98.1985H323.073V93.6048Z" fill="white"/>
<path d="M375.708 109.078H359.02V113.671H375.708V109.078Z" fill="#F0EFF3"/>
<path d="M350.241 109.078H271.178V113.671H350.241V109.078Z" fill="white"/>
</g>
</g>
<defs>
<clipPath id="clip0_1220_5569">
<rect width="270.728" height="172.472" fill="white" transform="translate(100.797 150.257)"/>
</clipPath>
<clipPath id="clip1_1220_5569">
<rect width="72" height="72" fill="white" transform="translate(139 186)"/>
</clipPath>
<clipPath id="clip2_1220_5569">
<rect width="162.019" height="158.883" fill="white" transform="translate(308.808 170.117)"/>
</clipPath>
<clipPath id="clip3_1220_5569">
<rect width="156.792" height="129.615" fill="white" transform="translate(244.001 52)"/>
</clipPath>
<clipPath id="clip4_1220_5569">
<rect width="104.528" height="35.5396" fill="white" transform="translate(271.178 78.1318)"/>
</clipPath>
</defs>
</svg>
