<svg width="24" height="24" viewBox="0 0 24 24" fill="none" xmlns="http://www.w3.org/2000/svg">
<path d="M7.29278 3.25725C7.68331 2.86672 8.31647 2.86672 8.707 3.25725L12.2425 6.79278C12.6331 7.18331 12.6331 7.81647 12.2425 8.207C11.852 8.59752 11.2188 8.59752 10.8283 8.207L8.99989 6.37857L8.99989 15.9999C8.99989 16.5522 8.55217 16.9999 7.99989 16.9999C7.4476 16.9999 6.99989 16.5522 6.99989 15.9999L6.99989 6.37857L5.17146 8.207C4.78094 8.59752 4.14777 8.59752 3.75725 8.207C3.36672 7.81647 3.36672 7.18331 3.75725 6.79278L7.29278 3.25725Z" fill="#000000"  opacity="0.2"/>
<path d="M18.8283 15.7929L16.9999 17.6213V8C16.9999 7.44772 16.5522 7 15.9999 7C15.4476 7 14.9999 7.44772 14.9999 8V17.6213L13.1715 15.7929C12.7809 15.4024 12.1478 15.4024 11.7572 15.7929C11.3667 16.1834 11.3667 16.8166 11.7572 17.2071L15.2928 20.7426C15.6833 21.1332 16.3165 21.1332 16.707 20.7426L20.2425 17.2071C20.6331 16.8166 20.6331 16.1834 20.2425 15.7929C19.852 15.4024 19.2188 15.4024 18.8283 15.7929Z" fill="#000000" />
</svg>
