<svg width="30" height="30" viewBox="0 0 30 30" fill="none" xmlns="http://www.w3.org/2000/svg">
<path d="M27 15C25.7271 17.7854 23.9555 20.0754 21.8544 21.651C19.7534 23.2265 17.3934 24.0349 15 23.9988C12.6066 24.0349 10.2466 23.2265 8.14556 21.651C6.04455 20.0754 4.27287 17.7854 3 15C4.27287 12.2146 6.04455 9.92457 8.14556 8.34901C10.2466 6.77346 12.6066 5.96506 15 6.00116C17.3934 5.96506 19.7534 6.77346 21.8544 8.34901C23.9555 9.92457 25.7271 12.2146 27 15Z" stroke="#ff0000" stroke-width="2" stroke-miterlimit="10"/>
<path d="M15 19C17.2091 19 19 17.2091 19 15C19 12.7909 17.2091 11 15 11C12.7909 11 11 12.7909 11 15C11 17.2091 12.7909 19 15 19Z" stroke="#ff0000" stroke-width="2" stroke-miterlimit="10"/>
</svg>
