<svg width="24" height="24" viewBox="0 0 24 24" fill="none" xmlns="http://www.w3.org/2000/svg">
<path d="M14 5.28988H13.5C13.5 5.51109 13.6454 5.70601 13.8574 5.76911L14 5.28988ZM15.3302 5.84137L15.092 6.28097C15.2865 6.3864 15.5273 6.3514 15.6837 6.19492L15.3302 5.84137ZM16.2426 4.92891L15.8891 4.57536L15.8891 4.57536L16.2426 4.92891ZM17.6569 4.92891L17.3033 5.28246L17.3033 5.28246L17.6569 4.92891ZM19.0711 6.34312L19.4246 5.98957L19.4246 5.98957L19.0711 6.34312ZM19.0711 7.75734L18.7175 7.40378L18.7175 7.40378L19.0711 7.75734ZM18.1586 8.66978L17.8051 8.31623C17.6486 8.47271 17.6136 8.71343 17.719 8.908L18.1586 8.66978ZM18.7101 10L18.2309 10.1426C18.294 10.3546 18.4889 10.5 18.7101 10.5V10ZM18.7101 14V13.5C18.4889 13.5 18.294 13.6454 18.2309 13.8574L18.7101 14ZM18.1586 15.3302L17.719 15.092C17.6136 15.2866 17.6486 15.5273 17.8051 15.6838L18.1586 15.3302ZM19.0711 16.2427L19.4246 15.8891L19.4246 15.8891L19.0711 16.2427ZM19.0711 17.6569L18.7175 17.3033L18.7175 17.3033L19.0711 17.6569ZM17.6569 19.0711L18.0104 19.4246L18.0104 19.4246L17.6569 19.0711ZM15.3302 18.1586L15.6837 17.8051C15.5273 17.6486 15.2865 17.6136 15.092 17.719L15.3302 18.1586ZM14 18.7101L13.8574 18.2309C13.6454 18.294 13.5 18.4889 13.5 18.7101H14ZM10 18.7101H10.5C10.5 18.4889 10.3547 18.294 10.1426 18.2309L10 18.7101ZM8.6698 18.1586L8.90801 17.719C8.71345 17.6136 8.47272 17.6486 8.31625 17.8051L8.6698 18.1586ZM7.75736 19.071L7.40381 18.7175L7.40381 18.7175L7.75736 19.071ZM6.34315 19.071L5.9896 19.4246L5.9896 19.4246L6.34315 19.071ZM4.92894 17.6568L4.57538 18.0104L4.57538 18.0104L4.92894 17.6568ZM4.92894 16.2426L5.28249 16.5962L5.28249 16.5962L4.92894 16.2426ZM5.84138 15.3302L6.19493 15.6837C6.35141 15.5272 6.38642 15.2865 6.28099 15.092L5.84138 15.3302ZM5.28989 14L5.76912 13.8574C5.70602 13.6454 5.5111 13.5 5.28989 13.5V14ZM5.28989 10V10.5C5.5111 10.5 5.70602 10.3546 5.76912 10.1426L5.28989 10ZM5.84138 8.66982L6.28099 8.90804C6.38642 8.71347 6.35142 8.47275 6.19494 8.31627L5.84138 8.66982ZM6.34315 4.92895L6.69671 5.28251L6.69671 5.28251L6.34315 4.92895ZM8.6698 5.84139L8.31625 6.19494C8.47273 6.35142 8.71345 6.38643 8.90802 6.28099L8.6698 5.84139ZM10 5.28988L10.1426 5.76911C10.3547 5.70601 10.5 5.51109 10.5 5.28988H10ZM11 2.5C10.1716 2.5 9.50002 3.17157 9.50002 4H10.5C10.5 3.72386 10.7239 3.5 11 3.5V2.5ZM13 2.5H11V3.5H13V2.5ZM14.5 4C14.5 3.17157 13.8284 2.5 13 2.5V3.5C13.2762 3.5 13.5 3.72386 13.5 4H14.5ZM14.5 5.28988V4H13.5V5.28988H14.5ZM15.5684 5.40176C15.119 5.15822 14.6417 4.95918 14.1426 4.81065L13.8574 5.76911C14.2894 5.89767 14.7026 6.06999 15.092 6.28097L15.5684 5.40176ZM15.8891 4.57536L14.9766 5.48781L15.6837 6.19492L16.5962 5.28246L15.8891 4.57536ZM18.0104 4.57536C17.4246 3.98957 16.4749 3.98957 15.8891 4.57536L16.5962 5.28246C16.7915 5.0872 17.108 5.0872 17.3033 5.28246L18.0104 4.57536ZM19.4246 5.98957L18.0104 4.57536L17.3033 5.28246L18.7175 6.69668L19.4246 5.98957ZM19.4246 8.11089C20.0104 7.5251 20.0104 6.57536 19.4246 5.98957L18.7175 6.69668C18.9128 6.89194 18.9128 7.20852 18.7175 7.40378L19.4246 8.11089ZM18.5122 9.02334L19.4246 8.11089L18.7175 7.40378L17.8051 8.31623L18.5122 9.02334ZM19.1894 9.85738C19.0408 9.35828 18.8418 8.88103 18.5982 8.43157L17.719 8.908C17.93 9.29738 18.1023 9.71062 18.2309 10.1426L19.1894 9.85738ZM18.7101 10.5H20V9.5H18.7101V10.5ZM20 10.5C20.2761 10.5 20.5 10.7239 20.5 11H21.5C21.5 10.1716 20.8284 9.5 20 9.5V10.5ZM20.5 11V13H21.5V11H20.5ZM20.5 13C20.5 13.2761 20.2761 13.5 20 13.5V14.5C20.8284 14.5 21.5 13.8284 21.5 13H20.5ZM20 13.5H18.7101V14.5H20V13.5ZM18.5982 15.5684C18.8418 15.119 19.0408 14.6417 19.1894 14.1426L18.2309 13.8574C18.1023 14.2894 17.93 14.7026 17.719 15.092L18.5982 15.5684ZM19.4246 15.8891L18.5122 14.9767L17.8051 15.6838L18.7175 16.5962L19.4246 15.8891ZM19.4246 18.0104C20.0104 17.4246 20.0104 16.4749 19.4246 15.8891L18.7175 16.5962C18.9128 16.7915 18.9128 17.1081 18.7175 17.3033L19.4246 18.0104ZM18.0104 19.4246L19.4246 18.0104L18.7175 17.3033L17.3033 18.7175L18.0104 19.4246ZM15.8891 19.4246C16.4749 20.0104 17.4246 20.0104 18.0104 19.4246L17.3033 18.7175C17.108 18.9128 16.7915 18.9128 16.5962 18.7175L15.8891 19.4246ZM14.9766 18.5122L15.8891 19.4246L16.5962 18.7175L15.6837 17.8051L14.9766 18.5122ZM14.1426 19.1893C14.6417 19.0408 15.119 18.8418 15.5684 18.5982L15.092 17.719C14.7026 17.93 14.2894 18.1023 13.8574 18.2309L14.1426 19.1893ZM14.5 20V18.7101H13.5V20H14.5ZM13 21.5C13.8284 21.5 14.5 20.8284 14.5 20H13.5C13.5 20.2761 13.2762 20.5 13 20.5V21.5ZM11 21.5H13V20.5H11V21.5ZM9.50002 20C9.50002 20.8284 10.1716 21.5 11 21.5V20.5C10.7239 20.5 10.5 20.2761 10.5 20H9.50002ZM9.50002 18.7101V20H10.5V18.7101H9.50002ZM8.43158 18.5982C8.88104 18.8418 9.3583 19.0408 9.85739 19.1893L10.1426 18.2309C9.71064 18.1023 9.29739 17.93 8.90801 17.719L8.43158 18.5982ZM8.11092 19.4246L9.02335 18.5122L8.31625 17.8051L7.40381 18.7175L8.11092 19.4246ZM5.9896 19.4246C6.57538 20.0104 7.52513 20.0104 8.11092 19.4246L7.40381 18.7175C7.20855 18.9128 6.89197 18.9128 6.6967 18.7175L5.9896 19.4246ZM4.57538 18.0104L5.9896 19.4246L6.6967 18.7175L5.28249 17.3033L4.57538 18.0104ZM4.57538 15.8891C3.9896 16.4748 3.9896 17.4246 4.57538 18.0104L5.28249 17.3033C5.08723 17.108 5.08723 16.7914 5.28249 16.5962L4.57538 15.8891ZM5.48783 14.9766L4.57538 15.8891L5.28249 16.5962L6.19493 15.6837L5.48783 14.9766ZM4.81067 14.1426C4.9592 14.6417 5.15823 15.1189 5.40177 15.5684L6.28099 15.092C6.07 14.7026 5.89769 14.2894 5.76912 13.8574L4.81067 14.1426ZM5.28989 13.5H4V14.5H5.28989V13.5ZM4 13.5C3.72386 13.5 3.5 13.2761 3.5 13H2.5C2.5 13.8284 3.17157 14.5 4 14.5V13.5ZM3.5 13V11H2.5V13H3.5ZM3.5 11C3.5 10.7239 3.72386 10.5 4 10.5V9.5C3.17157 9.5 2.5 10.1716 2.5 11H3.5ZM4 10.5H5.28989V9.5H4V10.5ZM5.40178 8.43161C5.15823 8.88106 4.9592 9.3583 4.81067 9.85737L5.76912 10.1426C5.89769 9.71064 6.07 9.2974 6.28099 8.90804L5.40178 8.43161ZM4.57539 8.11093L5.48783 9.02338L6.19494 8.31627L5.28249 7.40383L4.57539 8.11093ZM4.57539 5.98961C3.9896 6.5754 3.9896 7.52515 4.57539 8.11093L5.28249 7.40383C5.08723 7.20856 5.08723 6.89198 5.28249 6.69672L4.57539 5.98961ZM5.9896 4.5754L4.57539 5.98961L5.28249 6.69672L6.69671 5.28251L5.9896 4.5754ZM8.11092 4.5754C7.52514 3.98961 6.57539 3.98961 5.9896 4.5754L6.69671 5.28251C6.89197 5.08724 7.20855 5.08724 7.40381 5.28251L8.11092 4.5754ZM9.02336 5.48783L8.11092 4.5754L7.40381 5.28251L8.31625 6.19494L9.02336 5.48783ZM9.85739 4.81065C9.3583 4.95919 8.88105 5.15823 8.43159 5.40178L8.90802 6.28099C9.2974 6.07 9.71064 5.89767 10.1426 5.76911L9.85739 4.81065ZM9.50002 4V5.28988H10.5V4H9.50002Z" fill="black"/>
<circle cx="12" cy="12" r="3" stroke="black" stroke-linecap="round" stroke-linejoin="round"/>
</svg>
