<svg width="360" height="40" viewBox="0 0 370 44" fill="none" xmlns="http://www.w3.org/2000/svg">
<path d="M151.336 3.36023C152.396 1.48271 153.869 0.543945 155.754 0.543945C156.314 0.543945 156.873 0.631955 157.433 0.807974C158.228 1.04266 158.862 1.51204 159.333 2.21611C159.834 2.92018 160.084 3.71226 160.084 4.59235C160.084 5.47244 159.848 6.27919 159.377 7.01259L151.115 20.5219L163 39.7959H152.263L145.503 28.7948L139.008 39.7959H128.934L140.599 20.83L132.071 7.01259C131.659 6.36719 131.453 5.63379 131.453 4.81237C131.453 3.93229 131.688 3.12554 132.16 2.39213C132.66 1.65872 133.323 1.14534 134.148 0.851977C134.737 0.646623 135.341 0.543945 135.959 0.543945C136.873 0.543945 137.727 0.778636 138.522 1.24802C139.317 1.7174 139.98 2.4068 140.51 3.31622L146.166 12.4691L151.336 3.36023Z" fill="#74777D"/>
<path d="M98.228 13.9213C98.228 10.753 98.9644 8.17143 100.437 6.17657C101.91 4.15236 103.766 2.70022 106.004 1.82013C108.243 0.940044 110.585 0.5 113.03 0.5C115.416 0.5 117.728 0.940044 119.967 1.82013C122.235 2.70022 124.105 4.15236 125.578 6.17657C127.08 8.17143 127.831 10.753 127.831 13.9213V27.0787C127.831 30.247 127.08 32.8432 125.578 34.8674C124.105 36.8623 122.235 38.2998 119.967 39.1799C117.728 40.06 115.416 40.5 113.03 40.5C110.644 40.5 108.317 40.06 106.049 39.1799C103.81 38.2998 101.939 36.8623 100.437 34.8674C98.9644 32.8432 98.228 30.247 98.228 27.0787V13.9213ZM118.818 13.6573C118.818 11.8091 118.273 10.4157 117.183 9.4769C116.123 8.5088 114.738 8.02475 113.03 8.02475C111.321 8.02475 109.922 8.5088 108.832 9.4769C107.772 10.4157 107.242 11.8091 107.242 13.6573V27.3427C107.242 29.0442 107.786 30.4083 108.876 31.4351C109.996 32.4619 111.38 32.9752 113.03 32.9752C114.679 32.9752 116.049 32.4619 117.139 31.4351C118.258 30.4083 118.818 29.0442 118.818 27.3427V13.6573Z" fill="#74777D"/>
<path d="M93.159 12.6452C93.159 16.0482 91.7599 18.5272 88.9616 20.082C92.6436 21.5195 94.4846 24.3357 94.4846 28.5308V28.9269C94.4846 32.7699 93.2621 35.5422 90.8173 37.2437C88.3724 38.9452 85.0292 39.796 80.7875 39.796H73.0995C71.3322 39.796 69.9478 39.5613 68.9462 39.0919C67.9447 38.6518 67.2378 37.9331 66.8254 36.9357C66.413 35.9382 66.2068 34.5741 66.2068 32.8433V8.15679C66.2068 6.42595 66.413 5.06182 66.8254 4.06439C67.2378 3.06695 67.9447 2.34821 68.9462 1.90817C69.9478 1.43879 71.3322 1.2041 73.0995 1.2041H79.5504C83.7037 1.2041 87.0027 2.14286 89.4476 4.02038C91.9219 5.8979 93.159 8.59684 93.159 12.1172V12.6452ZM75.1762 31.0391C75.1762 31.5671 75.2645 31.9192 75.4413 32.0952C75.618 32.2419 75.9568 32.3152 76.4575 32.3152H81.3177C82.7316 32.3152 83.7773 31.9778 84.4548 31.3031C85.1618 30.599 85.5152 29.6749 85.5152 28.5308V27.8708C85.5152 26.7267 85.1618 25.8172 84.4548 25.1425C83.7773 24.4384 82.7316 24.0864 81.3177 24.0864H75.1762V31.0391ZM76.4575 8.68485C75.9568 8.68485 75.618 8.77286 75.4413 8.94888C75.2645 9.09556 75.1762 9.43292 75.1762 9.96098V16.9137H79.9922C81.3767 16.9137 82.4223 16.5616 83.1293 15.8576C83.8362 15.1535 84.1897 14.2294 84.1897 13.0853V12.5132C84.1897 11.3398 83.8362 10.4157 83.1293 9.74095C82.4518 9.03688 81.4061 8.68485 79.9922 8.68485H76.4575Z" fill="#74777D"/>
<path d="M37.9895 4.90044C37.9895 3.46296 38.4166 2.37752 39.2708 1.64412C40.1545 0.881372 41.2591 0.5 42.5846 0.5C43.9101 0.5 45 0.881372 45.8542 1.64412C46.7379 2.37752 47.1798 3.46296 47.1798 4.90044V39.7959H37.9895V4.90044Z" fill="#FF5838"/>
<path d="M11.3553 4.15237C11.7382 2.97891 12.4599 2.08416 13.5203 1.4681C14.6101 0.822699 15.7884 0.5 17.055 0.5C18.2332 0.5 19.3378 0.822699 20.3688 1.4681C21.4292 2.1135 22.1361 3.00825 22.4896 4.15237L34.0216 39.7959H24.3012L22.2245 32.2272H11.6204L9.54373 39.7959H0L11.3553 4.15237ZM20.1921 24.7904L16.9224 12.7332L13.6528 24.7904H20.1921Z" fill="#FF5838"/>
<path d="M189.528 17.356C189.736 16.716 190.128 16.228 190.704 15.892C191.296 15.54 191.936 15.364 192.624 15.364C193.264 15.364 193.864 15.54 194.424 15.892C195 16.244 195.384 16.732 195.576 17.356L201.84 36.796H196.56L195.432 32.668H189.672L188.544 36.796H183.36L189.528 17.356ZM194.328 28.612L192.552 22.036L190.776 28.612H194.328ZM213.319 36.796L213.079 35.236C212.599 35.86 212.015 36.34 211.327 36.676C210.655 37.028 209.887 37.204 209.023 37.204C207.263 37.204 205.847 36.692 204.775 35.668C203.703 34.644 203.167 32.948 203.167 30.58V27.268C203.167 24.9 203.703 23.204 204.775 22.18C205.847 21.156 207.263 20.644 209.023 20.644C210.271 20.644 211.351 21.02 212.263 21.772V17.764C212.263 17.012 212.503 16.428 212.983 16.012C213.463 15.58 214.039 15.364 214.711 15.364C215.383 15.364 215.951 15.58 216.415 16.012C216.895 16.428 217.135 17.012 217.135 17.764V36.796H213.319ZM208.111 30.916C208.111 31.652 208.327 32.204 208.759 32.572C209.191 32.924 209.663 33.1 210.175 33.1C210.687 33.1 211.159 32.924 211.591 32.572C212.039 32.204 212.263 31.652 212.263 30.916V26.812C212.263 26.124 212.039 25.612 211.591 25.276C211.159 24.924 210.687 24.748 210.175 24.748C209.663 24.748 209.191 24.932 208.759 25.3C208.327 25.652 208.111 26.196 208.111 26.932V30.916ZM220.249 23.044C220.249 22.292 220.481 21.708 220.945 21.292C221.425 20.86 222.001 20.644 222.673 20.644C223.153 20.644 223.593 20.764 223.993 21.004C224.393 21.228 224.689 21.548 224.881 21.964C225.809 21.084 226.929 20.644 228.241 20.644C229.009 20.644 229.729 20.78 230.401 21.052C231.073 21.324 231.649 21.748 232.129 22.324C233.201 21.204 234.641 20.644 236.449 20.644C238.145 20.644 239.521 21.156 240.577 22.18C241.633 23.204 242.161 24.884 242.161 27.22V36.796H237.217V26.932C237.217 26.196 237.025 25.652 236.641 25.3C236.273 24.932 235.857 24.748 235.393 24.748C234.913 24.748 234.481 24.932 234.097 25.3C233.729 25.652 233.545 26.196 233.545 26.932V36.796H228.793V26.932C228.793 26.196 228.601 25.652 228.217 25.3C227.849 24.932 227.433 24.748 226.969 24.748C226.505 24.748 226.081 24.916 225.697 25.252C225.313 25.588 225.121 26.108 225.121 26.812V36.796H220.249V23.044ZM245.151 23.212C245.151 22.428 245.383 21.836 245.847 21.436C246.311 21.02 246.903 20.812 247.623 20.812C248.343 20.812 248.935 21.02 249.399 21.436C249.863 21.836 250.095 22.428 250.095 23.212V36.796H245.151V23.212ZM245.127 17.572C245.127 16.82 245.359 16.268 245.823 15.916C246.287 15.548 246.887 15.364 247.623 15.364C248.359 15.364 248.959 15.548 249.423 15.916C249.887 16.268 250.119 16.82 250.119 17.572C250.119 18.324 249.887 18.884 249.423 19.252C248.959 19.604 248.359 19.78 247.623 19.78C246.887 19.78 246.287 19.604 245.823 19.252C245.359 18.884 245.127 18.324 245.127 17.572ZM253.224 23.044C253.224 22.292 253.456 21.708 253.92 21.292C254.4 20.86 254.976 20.644 255.648 20.644C256.128 20.644 256.568 20.764 256.968 21.004C257.384 21.228 257.688 21.548 257.88 21.964C258.344 21.532 258.88 21.204 259.488 20.98C260.112 20.756 260.744 20.644 261.384 20.644C265.032 20.644 266.856 22.836 266.856 27.22V36.796H261.912V26.932C261.912 26.196 261.712 25.652 261.312 25.3C260.928 24.932 260.496 24.748 260.016 24.748C259.52 24.748 259.072 24.932 258.672 25.3C258.288 25.652 258.096 26.196 258.096 26.932V36.796H253.224V23.044ZM269.853 23.212C269.853 22.428 270.085 21.836 270.549 21.436C271.013 21.02 271.605 20.812 272.325 20.812C273.045 20.812 273.637 21.02 274.101 21.436C274.565 21.836 274.797 22.428 274.797 23.212V36.796H269.853V23.212ZM269.829 17.572C269.829 16.82 270.061 16.268 270.525 15.916C270.989 15.548 271.589 15.364 272.325 15.364C273.061 15.364 273.661 15.548 274.125 15.916C274.589 16.268 274.821 16.82 274.821 17.572C274.821 18.324 274.589 18.884 274.125 19.252C273.661 19.604 273.061 19.78 272.325 19.78C271.589 19.78 270.989 19.604 270.525 19.252C270.061 18.884 269.829 18.324 269.829 17.572ZM282.439 25.348C282.439 25.604 282.551 25.82 282.775 25.996C282.999 26.156 283.367 26.324 283.879 26.5L285.775 27.148C287.151 27.628 288.151 28.26 288.775 29.044C289.415 29.828 289.735 30.804 289.735 31.972C289.735 33.764 289.135 35.076 287.935 35.908C286.735 36.756 285.175 37.18 283.255 37.18C281.015 37.18 279.367 36.684 278.311 35.692C277.735 35.148 277.447 34.54 277.447 33.868C277.447 33.484 277.559 33.124 277.783 32.788C277.943 32.548 278.159 32.364 278.431 32.236C278.703 32.108 278.999 32.044 279.319 32.044C279.879 32.044 280.399 32.236 280.879 32.62C281.183 32.844 281.559 33.028 282.007 33.172C282.471 33.3 282.935 33.364 283.399 33.364C283.863 33.364 284.223 33.284 284.479 33.124C284.751 32.948 284.887 32.708 284.887 32.404C284.887 32.1 284.735 31.844 284.431 31.636C284.127 31.412 283.535 31.148 282.655 30.844L280.999 30.268C279.783 29.852 278.887 29.236 278.311 28.42C277.751 27.588 277.471 26.636 277.471 25.564C277.471 24.588 277.727 23.732 278.239 22.996C278.751 22.244 279.471 21.668 280.399 21.268C281.343 20.852 282.423 20.644 283.639 20.644C285.303 20.644 286.703 20.988 287.839 21.676C288.255 21.932 288.591 22.244 288.847 22.612C289.103 22.98 289.231 23.372 289.231 23.788C289.231 23.916 289.199 24.108 289.135 24.364C288.991 24.796 288.759 25.116 288.439 25.324C288.119 25.532 287.751 25.636 287.335 25.636C287.159 25.636 286.959 25.604 286.735 25.54C286.527 25.476 286.375 25.404 286.279 25.324C285.911 25.02 285.519 24.804 285.103 24.676C284.687 24.532 284.223 24.46 283.711 24.46C283.295 24.46 282.975 24.548 282.751 24.724C282.543 24.884 282.439 25.092 282.439 25.348ZM292.936 25.492C292.232 25.492 291.704 25.308 291.352 24.94C291 24.556 290.824 24.084 290.824 23.524C290.824 22.964 290.992 22.492 291.328 22.108C291.68 21.708 292.216 21.508 292.936 21.508H293.728V18.604C293.728 17.836 293.96 17.252 294.424 16.852C294.888 16.436 295.448 16.228 296.104 16.228C296.76 16.228 297.32 16.436 297.784 16.852C298.248 17.252 298.48 17.836 298.48 18.604V21.508H299.896C300.616 21.508 301.144 21.708 301.48 22.108C301.832 22.492 302.008 22.964 302.008 23.524C302.008 24.084 301.832 24.556 301.48 24.94C301.128 25.308 300.6 25.492 299.896 25.492H298.48V32.164C298.48 32.516 298.552 32.756 298.696 32.884C298.856 33.012 299.072 33.076 299.344 33.076C299.44 33.076 299.584 33.06 299.776 33.028C299.968 32.996 300.144 32.98 300.304 32.98C300.704 32.98 301.056 33.1 301.36 33.34C301.664 33.58 301.856 33.9 301.936 34.3C301.968 34.412 301.984 34.588 301.984 34.828C301.984 35.196 301.904 35.532 301.744 35.836C301.584 36.14 301.36 36.388 301.072 36.58C300.8 36.756 300.448 36.9 300.016 37.012C299.6 37.124 299.184 37.18 298.768 37.18C297.104 37.18 295.848 36.796 295 36.028C294.152 35.26 293.728 34.004 293.728 32.26V25.492H292.936ZM303.918 23.044C303.918 22.292 304.15 21.708 304.614 21.292C305.094 20.86 305.67 20.644 306.342 20.644C306.822 20.644 307.262 20.764 307.662 21.004C308.078 21.228 308.382 21.556 308.574 21.988C309.022 21.556 309.518 21.228 310.062 21.004C310.622 20.764 311.19 20.644 311.766 20.644C312.198 20.644 312.574 20.708 312.894 20.836C313.294 21.012 313.606 21.284 313.83 21.652C314.07 22.004 314.19 22.42 314.19 22.9C314.19 23.572 313.99 24.116 313.59 24.532C313.19 24.948 312.686 25.156 312.078 25.156H311.334C310.566 25.156 309.958 25.34 309.51 25.708C309.062 26.06 308.822 26.556 308.79 27.196V36.796H303.918V23.044ZM324.735 35.788C324.271 36.236 323.719 36.58 323.079 36.82C322.455 37.076 321.791 37.204 321.087 37.204H320.559C319.791 37.204 319.031 37.044 318.279 36.724C317.543 36.42 316.919 35.892 316.407 35.14C315.895 34.372 315.639 33.372 315.639 32.14C315.639 30.348 316.183 29.068 317.271 28.3C318.359 27.516 319.775 27.124 321.519 27.124H323.991C323.975 26.164 323.767 25.516 323.367 25.18C322.983 24.828 322.455 24.652 321.783 24.652C321.319 24.652 320.783 24.74 320.175 24.916C319.983 24.98 319.799 25.052 319.623 25.132C319.447 25.212 319.255 25.3 319.047 25.396C318.791 25.524 318.519 25.588 318.231 25.588C317.863 25.588 317.519 25.492 317.199 25.3C316.879 25.108 316.639 24.852 316.479 24.532C316.351 24.276 316.287 23.996 316.287 23.692C316.287 23.356 316.367 23.044 316.527 22.756C316.703 22.452 316.943 22.188 317.247 21.964C317.839 21.532 318.583 21.212 319.479 21.004C320.375 20.78 321.271 20.668 322.167 20.668C324.183 20.668 325.775 21.18 326.943 22.204C328.127 23.212 328.719 25.06 328.719 27.748V36.796H324.927L324.735 35.788ZM321.807 30.652C320.863 30.652 320.391 31.14 320.391 32.116C320.391 33.044 320.839 33.508 321.735 33.508H322.071C322.567 33.508 323.007 33.356 323.391 33.052C323.791 32.748 323.991 32.316 323.991 31.756V30.652H321.807ZM332.157 25.492C331.453 25.492 330.925 25.308 330.573 24.94C330.221 24.556 330.045 24.084 330.045 23.524C330.045 22.964 330.213 22.492 330.549 22.108C330.901 21.708 331.437 21.508 332.157 21.508H332.949V18.604C332.949 17.836 333.181 17.252 333.645 16.852C334.109 16.436 334.669 16.228 335.325 16.228C335.981 16.228 336.541 16.436 337.005 16.852C337.469 17.252 337.701 17.836 337.701 18.604V21.508H339.117C339.837 21.508 340.365 21.708 340.701 22.108C341.053 22.492 341.229 22.964 341.229 23.524C341.229 24.084 341.053 24.556 340.701 24.94C340.349 25.308 339.821 25.492 339.117 25.492H337.701V32.164C337.701 32.516 337.773 32.756 337.917 32.884C338.077 33.012 338.293 33.076 338.565 33.076C338.661 33.076 338.805 33.06 338.997 33.028C339.189 32.996 339.365 32.98 339.525 32.98C339.925 32.98 340.277 33.1 340.581 33.34C340.885 33.58 341.077 33.9 341.157 34.3C341.189 34.412 341.205 34.588 341.205 34.828C341.205 35.196 341.125 35.532 340.965 35.836C340.805 36.14 340.581 36.388 340.293 36.58C340.021 36.756 339.669 36.9 339.237 37.012C338.821 37.124 338.405 37.18 337.989 37.18C336.325 37.18 335.069 36.796 334.221 36.028C333.373 35.26 332.949 34.004 332.949 32.26V25.492H332.157ZM342.779 27.292C342.779 25.676 343.115 24.372 343.787 23.38C344.459 22.388 345.315 21.684 346.355 21.268C347.411 20.852 348.539 20.644 349.739 20.644C350.923 20.644 352.035 20.852 353.075 21.268C354.131 21.684 354.995 22.388 355.667 23.38C356.355 24.372 356.699 25.676 356.699 27.292V30.532C356.699 32.148 356.355 33.452 355.667 34.444C354.995 35.436 354.131 36.14 353.075 36.556C352.035 36.972 350.923 37.18 349.739 37.18C348.555 37.18 347.435 36.972 346.379 36.556C345.339 36.14 344.475 35.436 343.787 34.444C343.115 33.452 342.779 32.148 342.779 30.532V27.292ZM351.875 27.076C351.875 26.292 351.659 25.7 351.227 25.3C350.811 24.9 350.315 24.7 349.739 24.7C349.163 24.7 348.659 24.9 348.227 25.3C347.811 25.7 347.603 26.292 347.603 27.076V30.748C347.603 31.532 347.811 32.124 348.227 32.524C348.659 32.924 349.163 33.124 349.739 33.124C350.315 33.124 350.811 32.924 351.227 32.524C351.659 32.124 351.875 31.532 351.875 30.748V27.076ZM359.463 23.044C359.463 22.292 359.695 21.708 360.159 21.292C360.639 20.86 361.215 20.644 361.887 20.644C362.367 20.644 362.807 20.764 363.207 21.004C363.623 21.228 363.927 21.556 364.119 21.988C364.567 21.556 365.063 21.228 365.607 21.004C366.167 20.764 366.735 20.644 367.311 20.644C367.743 20.644 368.119 20.708 368.439 20.836C368.839 21.012 369.151 21.284 369.375 21.652C369.615 22.004 369.735 22.42 369.735 22.9C369.735 23.572 369.535 24.116 369.135 24.532C368.735 24.948 368.231 25.156 367.623 25.156H366.879C366.111 25.156 365.503 25.34 365.055 25.708C364.607 26.06 364.367 26.556 364.335 27.196V36.796H359.463V23.044Z" fill="#BBBDC1"/>
</svg>
