<svg width="140" height="45" viewBox="0 0 109 41" fill="none" xmlns="http://www.w3.org/2000/svg">
<path d="M68.7046 1.28661C69.186 0.441729 69.8546 0.0192871 70.7105 0.0192871C70.9645 0.0192871 71.2186 0.0588913 71.4727 0.1381C71.8338 0.24371 72.1213 0.454931 72.3352 0.771763C72.5626 1.08859 72.6762 1.44503 72.6762 1.84107C72.6762 2.23711 72.5692 2.60015 72.3553 2.93018L68.6043 9.00939L74.0001 17.6827H69.1258L66.0568 12.7322L63.1081 17.6827H58.5347L63.8302 9.148L59.9588 2.93018C59.7716 2.63975 59.678 2.30972 59.678 1.94008C59.678 1.54404 59.785 1.181 59.999 0.85097C60.2263 0.520938 60.5272 0.289915 60.9016 0.157902C61.1691 0.0654919 61.4432 0.0192871 61.724 0.0192871C62.1386 0.0192871 62.5264 0.124898 62.8875 0.336119C63.2485 0.54734 63.5494 0.857571 63.7901 1.26681L66.3577 5.38562L68.7046 1.28661Z" fill="#74777D"/>
<path d="M44.5942 6.0396C44.5942 4.61386 44.9286 3.45215 45.5972 2.55446C46.2658 1.64356 47.1083 0.990099 48.1246 0.59406C49.1409 0.19802 50.2041 0 51.314 0C52.3972 0 53.4469 0.19802 54.4632 0.59406C55.4929 0.990099 56.3421 1.64356 57.0107 2.55446C57.6927 3.45215 58.0337 4.61386 58.0337 6.0396V11.9604C58.0337 13.3861 57.6927 14.5545 57.0107 15.4653C56.3421 16.363 55.4929 17.0099 54.4632 17.4059C53.4469 17.802 52.3972 18 51.314 18C50.2308 18 49.1744 17.802 48.1447 17.4059C47.1284 17.0099 46.2792 16.363 45.5972 15.4653C44.9286 14.5545 44.5942 13.3861 44.5942 11.9604V6.0396ZM53.9417 5.92079C53.9417 5.08911 53.6943 4.46205 53.1995 4.0396C52.7181 3.60396 52.0896 3.38614 51.314 3.38614C50.5384 3.38614 49.9032 3.60396 49.4084 4.0396C48.927 4.46205 48.6863 5.08911 48.6863 5.92079V12.0792C48.6863 12.8449 48.9337 13.4587 49.4284 13.9208C49.9366 14.3828 50.5651 14.6139 51.314 14.6139C52.0629 14.6139 52.6847 14.3828 53.1795 13.9208C53.6876 13.4587 53.9417 12.8449 53.9417 12.0792V5.92079Z" fill="#74777D"/>
<path d="M42.2933 5.4659C42.2933 6.99725 41.6581 8.11276 40.3877 8.81243C42.0593 9.45929 42.8951 10.7266 42.8951 12.6144V12.7926C42.8951 14.522 42.3401 15.7695 41.2302 16.5352C40.1203 17.3009 38.6025 17.6837 36.6768 17.6837H33.1866C32.3842 17.6837 31.7557 17.5781 31.301 17.3669C30.8464 17.1689 30.5254 16.8454 30.3382 16.3966C30.151 15.9477 30.0574 15.3339 30.0574 14.555V3.44609C30.0574 2.66722 30.151 2.05336 30.3382 1.60451C30.5254 1.15567 30.8464 0.832233 31.301 0.634214C31.7557 0.422993 32.3842 0.317383 33.1866 0.317383H36.1152C38.0007 0.317383 39.4985 0.739825 40.6084 1.58471C41.7317 2.42959 42.2933 3.64411 42.2933 5.22827V5.4659ZM34.1293 13.7431C34.1293 13.9807 34.1695 14.1392 34.2497 14.2184C34.3299 14.2844 34.4837 14.3174 34.7111 14.3174H36.9175C37.5594 14.3174 38.0342 14.1656 38.3417 13.8619C38.6627 13.5451 38.8231 13.1293 38.8231 12.6144V12.3174C38.8231 11.8025 38.6627 11.3933 38.3417 11.0897C38.0342 10.7728 37.5594 10.6144 36.9175 10.6144H34.1293V13.7431ZM34.7111 3.68372C34.4837 3.68372 34.3299 3.72332 34.2497 3.80253C34.1695 3.86854 34.1293 4.02035 34.1293 4.25798V7.38669H36.3158C36.9443 7.38669 37.419 7.22827 37.74 6.91144C38.0609 6.59461 38.2214 6.17877 38.2214 5.66392V5.40649C38.2214 4.87844 38.0609 4.4626 37.74 4.15897C37.4324 3.84213 36.9577 3.68372 36.3158 3.68372H34.7111Z" fill="#74777D"/>
<path d="M17.2468 1.9802C17.2468 1.33333 17.4407 0.844885 17.8285 0.514852C18.2297 0.171617 18.7312 0 19.333 0C19.9347 0 20.4295 0.171617 20.8173 0.514852C21.2185 0.844885 21.4191 1.33333 21.4191 1.9802V17.6832H17.2468V1.9802Z" fill="#FF5838"/>
<path d="M5.15515 1.64356C5.329 1.11551 5.65663 0.712871 6.13804 0.435644C6.63283 0.145215 7.16773 0 7.74276 0C8.27766 0 8.77913 0.145215 9.24718 0.435644C9.72859 0.726073 10.0495 1.12871 10.21 1.64356L15.4454 17.6832H11.0324L10.0897 14.2772H5.27551L4.33273 17.6832H0L5.15515 1.64356ZM9.16694 10.9307L7.68258 5.50495L6.19822 10.9307H9.16694Z" fill="#FF5838"/>
<path d="M3.808 29.416C3.92933 29.0427 4.158 28.758 4.494 28.562C4.83933 28.3567 5.21267 28.254 5.614 28.254C5.98733 28.254 6.33733 28.3567 6.664 28.562C7 28.7673 7.224 29.052 7.336 29.416L10.99 40.756H7.91L7.252 38.348H3.892L3.234 40.756H0.21L3.808 29.416ZM6.608 35.982L5.572 32.146L4.536 35.982H6.608ZM17.6858 40.756L17.5458 39.846C17.2658 40.21 16.9252 40.49 16.5238 40.686C16.1318 40.8913 15.6838 40.994 15.1798 40.994C14.1532 40.994 13.3272 40.6953 12.7018 40.098C12.0765 39.5007 11.7638 38.5113 11.7638 37.13V35.198C11.7638 33.8167 12.0765 32.8273 12.7018 32.23C13.3272 31.6327 14.1532 31.334 15.1798 31.334C15.9078 31.334 16.5378 31.5533 17.0698 31.992V29.654C17.0698 29.2153 17.2098 28.8747 17.4898 28.632C17.7698 28.38 18.1058 28.254 18.4978 28.254C18.8898 28.254 19.2212 28.38 19.4918 28.632C19.7718 28.8747 19.9118 29.2153 19.9118 29.654V40.756H17.6858ZM14.6478 37.326C14.6478 37.7553 14.7738 38.0773 15.0258 38.292C15.2778 38.4973 15.5532 38.6 15.8518 38.6C16.1505 38.6 16.4258 38.4973 16.6778 38.292C16.9392 38.0773 17.0698 37.7553 17.0698 37.326V34.932C17.0698 34.5307 16.9392 34.232 16.6778 34.036C16.4258 33.8307 16.1505 33.728 15.8518 33.728C15.5532 33.728 15.2778 33.8353 15.0258 34.05C14.7738 34.2553 14.6478 34.5727 14.6478 35.002V37.326ZM21.7284 32.734C21.7284 32.2953 21.8638 31.9547 22.1344 31.712C22.4144 31.46 22.7504 31.334 23.1424 31.334C23.4224 31.334 23.6791 31.404 23.9124 31.544C24.1458 31.6747 24.3184 31.8613 24.4304 32.104C24.9718 31.5907 25.6251 31.334 26.3904 31.334C26.8384 31.334 27.2584 31.4133 27.6504 31.572C28.0424 31.7307 28.3784 31.978 28.6584 32.314C29.2838 31.6607 30.1238 31.334 31.1784 31.334C32.1678 31.334 32.9704 31.6327 33.5864 32.23C34.2024 32.8273 34.5104 33.8073 34.5104 35.17V40.756H31.6264V35.002C31.6264 34.5727 31.5144 34.2553 31.2904 34.05C31.0758 33.8353 30.8331 33.728 30.5624 33.728C30.2824 33.728 30.0304 33.8353 29.8064 34.05C29.5918 34.2553 29.4844 34.5727 29.4844 35.002V40.756H26.7124V35.002C26.7124 34.5727 26.6004 34.2553 26.3764 34.05C26.1618 33.8353 25.9191 33.728 25.6484 33.728C25.3778 33.728 25.1304 33.826 24.9064 34.022C24.6824 34.218 24.5704 34.5213 24.5704 34.932V40.756H21.7284V32.734ZM36.2545 32.832C36.2545 32.3747 36.3899 32.0293 36.6605 31.796C36.9312 31.5533 37.2765 31.432 37.6965 31.432C38.1165 31.432 38.4619 31.5533 38.7325 31.796C39.0032 32.0293 39.1385 32.3747 39.1385 32.832V40.756H36.2545V32.832ZM36.2405 29.542C36.2405 29.1033 36.3759 28.7813 36.6465 28.576C36.9172 28.3613 37.2672 28.254 37.6965 28.254C38.1259 28.254 38.4759 28.3613 38.7465 28.576C39.0172 28.7813 39.1525 29.1033 39.1525 29.542C39.1525 29.9807 39.0172 30.3073 38.7465 30.522C38.4759 30.7273 38.1259 30.83 37.6965 30.83C37.2672 30.83 36.9172 30.7273 36.6465 30.522C36.3759 30.3073 36.2405 29.9807 36.2405 29.542ZM40.9642 32.734C40.9642 32.2953 41.0996 31.9547 41.3702 31.712C41.6502 31.46 41.9862 31.334 42.3782 31.334C42.6582 31.334 42.9149 31.404 43.1482 31.544C43.3909 31.6747 43.5682 31.8613 43.6802 32.104C43.9509 31.852 44.2636 31.6607 44.6182 31.53C44.9822 31.3993 45.3509 31.334 45.7242 31.334C47.8522 31.334 48.9162 32.6127 48.9162 35.17V40.756H46.0322V35.002C46.0322 34.5727 45.9156 34.2553 45.6822 34.05C45.4582 33.8353 45.2062 33.728 44.9262 33.728C44.6369 33.728 44.3756 33.8353 44.1422 34.05C43.9182 34.2553 43.8062 34.5727 43.8062 35.002V40.756H40.9642V32.734ZM50.6641 32.832C50.6641 32.3747 50.7995 32.0293 51.0701 31.796C51.3408 31.5533 51.6861 31.432 52.1061 31.432C52.5261 31.432 52.8715 31.5533 53.1421 31.796C53.4128 32.0293 53.5481 32.3747 53.5481 32.832V40.756H50.6641V32.832ZM50.6501 29.542C50.6501 29.1033 50.7855 28.7813 51.0561 28.576C51.3268 28.3613 51.6768 28.254 52.1061 28.254C52.5355 28.254 52.8855 28.3613 53.1561 28.576C53.4268 28.7813 53.5621 29.1033 53.5621 29.542C53.5621 29.9807 53.4268 30.3073 53.1561 30.522C52.8855 30.7273 52.5355 30.83 52.1061 30.83C51.6768 30.83 51.3268 30.7273 51.0561 30.522C50.7855 30.3073 50.6501 29.9807 50.6501 29.542ZM58.0058 34.078C58.0058 34.2273 58.0712 34.3533 58.2018 34.456C58.3325 34.5493 58.5472 34.6473 58.8458 34.75L59.9518 35.128C60.7545 35.408 61.3378 35.7767 61.7018 36.234C62.0752 36.6913 62.2618 37.2607 62.2618 37.942C62.2618 38.9873 61.9118 39.7527 61.2118 40.238C60.5118 40.7327 59.6018 40.98 58.4818 40.98C57.1752 40.98 56.2138 40.6907 55.5978 40.112C55.2618 39.7947 55.0938 39.44 55.0938 39.048C55.0938 38.824 55.1592 38.614 55.2898 38.418C55.3832 38.278 55.5092 38.1707 55.6678 38.096C55.8265 38.0213 55.9992 37.984 56.1858 37.984C56.5125 37.984 56.8158 38.096 57.0958 38.32C57.2732 38.4507 57.4925 38.558 57.7538 38.642C58.0245 38.7167 58.2952 38.754 58.5658 38.754C58.8365 38.754 59.0465 38.7073 59.1958 38.614C59.3545 38.5113 59.4338 38.3713 59.4338 38.194C59.4338 38.0167 59.3452 37.8673 59.1678 37.746C58.9905 37.6153 58.6452 37.4613 58.1318 37.284L57.1658 36.948C56.4565 36.7053 55.9338 36.346 55.5978 35.87C55.2712 35.3847 55.1078 34.8293 55.1078 34.204C55.1078 33.6347 55.2572 33.1353 55.5558 32.706C55.8545 32.2673 56.2745 31.9313 56.8158 31.698C57.3665 31.4553 57.9965 31.334 58.7058 31.334C59.6765 31.334 60.4932 31.5347 61.1558 31.936C61.3985 32.0853 61.5945 32.2673 61.7438 32.482C61.8932 32.6967 61.9678 32.9253 61.9678 33.168C61.9678 33.2427 61.9492 33.3547 61.9118 33.504C61.8278 33.756 61.6925 33.9427 61.5058 34.064C61.3192 34.1853 61.1045 34.246 60.8618 34.246C60.7592 34.246 60.6425 34.2273 60.5118 34.19C60.3905 34.1527 60.3018 34.1107 60.2458 34.064C60.0312 33.8867 59.8025 33.7607 59.5598 33.686C59.3172 33.602 59.0465 33.56 58.7478 33.56C58.5052 33.56 58.3185 33.6113 58.1878 33.714C58.0665 33.8073 58.0058 33.9287 58.0058 34.078ZM64.1292 34.162C63.7185 34.162 63.4105 34.0547 63.2052 33.84C62.9999 33.616 62.8972 33.3407 62.8972 33.014C62.8972 32.6873 62.9952 32.412 63.1912 32.188C63.3965 31.9547 63.7092 31.838 64.1292 31.838H64.5912V30.144C64.5912 29.696 64.7265 29.3553 64.9972 29.122C65.2679 28.8793 65.5945 28.758 65.9772 28.758C66.3599 28.758 66.6865 28.8793 66.9572 29.122C67.2279 29.3553 67.3632 29.696 67.3632 30.144V31.838H68.1892C68.6092 31.838 68.9172 31.9547 69.1132 32.188C69.3185 32.412 69.4212 32.6873 69.4212 33.014C69.4212 33.3407 69.3185 33.616 69.1132 33.84C68.9079 34.0547 68.5999 34.162 68.1892 34.162H67.3632V38.054C67.3632 38.2593 67.4052 38.3993 67.4892 38.474C67.5825 38.5487 67.7085 38.586 67.8672 38.586C67.9232 38.586 68.0072 38.5767 68.1192 38.558C68.2312 38.5393 68.3339 38.53 68.4272 38.53C68.6605 38.53 68.8659 38.6 69.0432 38.74C69.2205 38.88 69.3325 39.0667 69.3792 39.3C69.3979 39.3653 69.4072 39.468 69.4072 39.608C69.4072 39.8227 69.3605 40.0187 69.2672 40.196C69.1739 40.3733 69.0432 40.518 68.8752 40.63C68.7165 40.7327 68.5112 40.8167 68.2592 40.882C68.0165 40.9473 67.7739 40.98 67.5312 40.98C66.5605 40.98 65.8279 40.756 65.3332 40.308C64.8385 39.86 64.5912 39.1273 64.5912 38.11V34.162H64.1292ZM70.5354 32.734C70.5354 32.2953 70.6707 31.9547 70.9414 31.712C71.2214 31.46 71.5574 31.334 71.9494 31.334C72.2294 31.334 72.4861 31.404 72.7194 31.544C72.9621 31.6747 73.1394 31.866 73.2514 32.118C73.5127 31.866 73.8021 31.6747 74.1194 31.544C74.4461 31.404 74.7774 31.334 75.1134 31.334C75.3654 31.334 75.5847 31.3713 75.7714 31.446C76.0047 31.5487 76.1867 31.7073 76.3174 31.922C76.4574 32.1273 76.5274 32.37 76.5274 32.65C76.5274 33.042 76.4107 33.3593 76.1774 33.602C75.9441 33.8447 75.6501 33.966 75.2954 33.966H74.8614C74.4134 33.966 74.0587 34.0733 73.7974 34.288C73.5361 34.4933 73.3961 34.7827 73.3774 35.156V40.756H70.5354V32.734ZM82.679 40.168C82.4083 40.4293 82.0863 40.63 81.713 40.77C81.349 40.9193 80.9616 40.994 80.551 40.994H80.243C79.795 40.994 79.3516 40.9007 78.913 40.714C78.4836 40.5367 78.1196 40.2287 77.821 39.79C77.5223 39.342 77.373 38.7587 77.373 38.04C77.373 36.9947 77.6903 36.248 78.325 35.8C78.9596 35.3427 79.7856 35.114 80.803 35.114H82.245C82.2356 34.554 82.1143 34.176 81.881 33.98C81.657 33.7747 81.349 33.672 80.957 33.672C80.6863 33.672 80.3736 33.7233 80.019 33.826C79.907 33.8633 79.7996 33.9053 79.697 33.952C79.5943 33.9987 79.4823 34.05 79.361 34.106C79.2116 34.1807 79.053 34.218 78.885 34.218C78.6703 34.218 78.4696 34.162 78.283 34.05C78.0963 33.938 77.9563 33.7887 77.863 33.602C77.7883 33.4527 77.751 33.2893 77.751 33.112C77.751 32.916 77.7976 32.734 77.891 32.566C77.9936 32.3887 78.1336 32.2347 78.311 32.104C78.6563 31.852 79.0903 31.6653 79.613 31.544C80.1356 31.4133 80.6583 31.348 81.181 31.348C82.357 31.348 83.2856 31.6467 83.967 32.244C84.6576 32.832 85.003 33.91 85.003 35.478V40.756H82.791L82.679 40.168ZM80.971 37.172C80.4203 37.172 80.145 37.4567 80.145 38.026C80.145 38.5673 80.4063 38.838 80.929 38.838H81.125C81.4143 38.838 81.671 38.7493 81.895 38.572C82.1283 38.3947 82.245 38.1427 82.245 37.816V37.172H80.971ZM87.0083 34.162C86.5976 34.162 86.2896 34.0547 86.0843 33.84C85.8789 33.616 85.7763 33.3407 85.7763 33.014C85.7763 32.6873 85.8743 32.412 86.0703 32.188C86.2756 31.9547 86.5883 31.838 87.0083 31.838H87.4703V30.144C87.4703 29.696 87.6056 29.3553 87.8763 29.122C88.1469 28.8793 88.4736 28.758 88.8563 28.758C89.2389 28.758 89.5656 28.8793 89.8363 29.122C90.1069 29.3553 90.2423 29.696 90.2423 30.144V31.838H91.0683C91.4883 31.838 91.7963 31.9547 91.9923 32.188C92.1976 32.412 92.3003 32.6873 92.3003 33.014C92.3003 33.3407 92.1976 33.616 91.9923 33.84C91.7869 34.0547 91.4789 34.162 91.0683 34.162H90.2423V38.054C90.2423 38.2593 90.2843 38.3993 90.3683 38.474C90.4616 38.5487 90.5876 38.586 90.7463 38.586C90.8023 38.586 90.8863 38.5767 90.9983 38.558C91.1103 38.5393 91.2129 38.53 91.3063 38.53C91.5396 38.53 91.7449 38.6 91.9223 38.74C92.0996 38.88 92.2116 39.0667 92.2583 39.3C92.2769 39.3653 92.2863 39.468 92.2863 39.608C92.2863 39.8227 92.2396 40.0187 92.1463 40.196C92.0529 40.3733 91.9223 40.518 91.7543 40.63C91.5956 40.7327 91.3903 40.8167 91.1383 40.882C90.8956 40.9473 90.6529 40.98 90.4103 40.98C89.4396 40.98 88.7069 40.756 88.2123 40.308C87.7176 39.86 87.4703 39.1273 87.4703 38.11V34.162H87.0083ZM93.2045 35.212C93.2045 34.2693 93.4005 33.5087 93.7925 32.93C94.1845 32.3513 94.6838 31.9407 95.2905 31.698C95.9065 31.4553 96.5645 31.334 97.2645 31.334C97.9551 31.334 98.6038 31.4553 99.2105 31.698C99.8265 31.9407 100.33 32.3513 100.722 32.93C101.124 33.5087 101.324 34.2693 101.324 35.212V37.102C101.324 38.0447 101.124 38.8053 100.722 39.384C100.33 39.9627 99.8265 40.3733 99.2105 40.616C98.6038 40.8587 97.9551 40.98 97.2645 40.98C96.5738 40.98 95.9205 40.8587 95.3045 40.616C94.6978 40.3733 94.1938 39.9627 93.7925 39.384C93.4005 38.8053 93.2045 38.0447 93.2045 37.102V35.212ZM98.5105 35.086C98.5105 34.6287 98.3845 34.2833 98.1325 34.05C97.8898 33.8167 97.6005 33.7 97.2645 33.7C96.9285 33.7 96.6345 33.8167 96.3825 34.05C96.1398 34.2833 96.0185 34.6287 96.0185 35.086V37.228C96.0185 37.6853 96.1398 38.0307 96.3825 38.264C96.6345 38.4973 96.9285 38.614 97.2645 38.614C97.6005 38.614 97.8898 38.4973 98.1325 38.264C98.3845 38.0307 98.5105 37.6853 98.5105 37.228V35.086ZM102.937 32.734C102.937 32.2953 103.072 31.9547 103.343 31.712C103.623 31.46 103.959 31.334 104.351 31.334C104.631 31.334 104.887 31.404 105.121 31.544C105.363 31.6747 105.541 31.866 105.653 32.118C105.914 31.866 106.203 31.6747 106.521 31.544C106.847 31.404 107.179 31.334 107.515 31.334C107.767 31.334 107.986 31.3713 108.173 31.446C108.406 31.5487 108.588 31.7073 108.719 31.922C108.859 32.1273 108.929 32.37 108.929 32.65C108.929 33.042 108.812 33.3593 108.579 33.602C108.345 33.8447 108.051 33.966 107.697 33.966H107.263C106.815 33.966 106.46 34.0733 106.199 34.288C105.937 34.4933 105.797 34.7827 105.779 35.156V40.756H102.937V32.734Z" fill="#BBBDC1"/>
</svg>
